<?xml version="1.0" encoding="UTF-8" standalone="no"?>
<svg
   xmlns:dc="http://purl.org/dc/elements/1.1/"
   xmlns:cc="http://creativecommons.org/ns#"
   xmlns:rdf="http://www.w3.org/1999/02/22-rdf-syntax-ns#"
   xmlns:svg="http://www.w3.org/2000/svg"
   xmlns="http://www.w3.org/2000/svg"
   viewBox="0 0 363.31201 364.36667"
   height="364.36667"
   width="363.31201"
   xml:space="preserve"
   id="svg2"
   version="1.1"><metadata
     id="metadata8"><rdf:RDF><cc:Work
         rdf:about=""><dc:format>image/svg+xml</dc:format><dc:type
           rdf:resource="http://purl.org/dc/dcmitype/StillImage" /></cc:Work></rdf:RDF></metadata><defs
     id="defs6" /><g
     transform="matrix(1.3333333,0,0,-1.3333333,0,364.36667)"
     id="g10"><g
       transform="translate(136.242,136.638)"
       id="g12"><g
         id="g14"><g
           id="g16"><g
             id="g18" /><path
             id="path20"
             style="fill:none;stroke:#000000;stroke-width:0.3985;stroke-linecap:butt;stroke-linejoin:miter;stroke-miterlimit:10;stroke-dasharray:none;stroke-opacity:1"
             d="M 0,0 V 99.21387" /><path
             id="path22"
             style="fill:none;stroke:#000000;stroke-width:0.3985;stroke-linecap:butt;stroke-linejoin:miter;stroke-miterlimit:10;stroke-dasharray:none;stroke-opacity:1"
             d="M 0,0 -85.92195,49.60692" /><path
             id="path24"
             style="fill:none;stroke:#000000;stroke-width:0.3985;stroke-linecap:butt;stroke-linejoin:miter;stroke-miterlimit:10;stroke-dasharray:none;stroke-opacity:1"
             d="M 0,0 -85.92195,-49.60692" /><path
             id="path26"
             style="fill:none;stroke:#000000;stroke-width:0.3985;stroke-linecap:butt;stroke-linejoin:miter;stroke-miterlimit:10;stroke-dasharray:none;stroke-opacity:1"
             d="M 0,0 V -99.21387" /><path
             id="path28"
             style="fill:none;stroke:#000000;stroke-width:0.3985;stroke-linecap:butt;stroke-linejoin:miter;stroke-miterlimit:10;stroke-dasharray:none;stroke-opacity:1"
             d="M 0,0 85.92195,-49.60692" /><path
             id="path30"
             style="fill:none;stroke:#000000;stroke-width:0.3985;stroke-linecap:butt;stroke-linejoin:miter;stroke-miterlimit:10;stroke-dasharray:none;stroke-opacity:1"
             d="M 0,0 85.92195,49.60692" /><g
             id="g32" /><path
             id="path34"
             style="fill:#000000;fill-opacity:1;fill-rule:nonzero;stroke:none"
             d="M 0.99628,0 C 0.99628,0.55023 0.55023,0.99628 0,0.99628 -0.55023,0.99628 -0.99628,0.55023 -0.99628,0 c 0,-0.55023 0.44605,-0.99628 0.99628,-0.99628 0.55023,0 0.99628,0.44605 0.99628,0.99628 z" /><g
             id="g36" /><path
             id="path38"
             style="fill:#000000;fill-opacity:1;fill-rule:nonzero;stroke:none"
             d="M 0.99628,0 C 0.99628,0.55023 0.55023,0.99628 0,0.99628 -0.55023,0.99628 -0.99628,0.55023 -0.99628,0 c 0,-0.55023 0.44605,-0.99628 0.99628,-0.99628 0.55023,0 0.99628,0.44605 0.99628,0.99628 z" /><g
             id="g40" /><path
             id="path42"
             style="fill:#000000;fill-opacity:1;fill-rule:nonzero;stroke:none"
             d="M 0.99628,0 C 0.99628,0.55023 0.55023,0.99628 0,0.99628 -0.55023,0.99628 -0.99628,0.55023 -0.99628,0 c 0,-0.55023 0.44605,-0.99628 0.99628,-0.99628 0.55023,0 0.99628,0.44605 0.99628,0.99628 z" /><g
             id="g44" /><path
             id="path46"
             style="fill:#000000;fill-opacity:1;fill-rule:nonzero;stroke:none"
             d="M 0.99628,0 C 0.99628,0.55023 0.55023,0.99628 0,0.99628 -0.55023,0.99628 -0.99628,0.55023 -0.99628,0 c 0,-0.55023 0.44605,-0.99628 0.99628,-0.99628 0.55023,0 0.99628,0.44605 0.99628,0.99628 z" /><g
             id="g48" /><path
             id="path50"
             style="fill:#000000;fill-opacity:1;fill-rule:nonzero;stroke:none"
             d="M 0.99628,0 C 0.99628,0.55023 0.55023,0.99628 0,0.99628 -0.55023,0.99628 -0.99628,0.55023 -0.99628,0 c 0,-0.55023 0.44605,-0.99628 0.99628,-0.99628 0.55023,0 0.99628,0.44605 0.99628,0.99628 z" /><g
             id="g52" /><path
             id="path54"
             style="fill:#000000;fill-opacity:1;fill-rule:nonzero;stroke:none"
             d="M 0.99628,0 C 0.99628,0.55023 0.55023,0.99628 0,0.99628 -0.55023,0.99628 -0.99628,0.55023 -0.99628,0 c 0,-0.55023 0.44605,-0.99628 0.99628,-0.99628 0.55023,0 0.99628,0.44605 0.99628,0.99628 z" /><g
             id="g56"><path
               id="path58"
               style="fill:none;stroke:#000000;stroke-width:0.3985;stroke-linecap:butt;stroke-linejoin:miter;stroke-miterlimit:10;stroke-dasharray:none;stroke-opacity:0.3"
               d="M 0,0 V 0 0 0 0 0 Z" /></g><g
             id="g60" /><path
             id="path62"
             style="fill:#000000;fill-opacity:1;fill-rule:nonzero;stroke:none"
             d="m 0.99628,9.92137 c 0,0.55023 -0.44605,0.99628 -0.99628,0.99628 -0.55023,0 -0.99628,-0.44605 -0.99628,-0.99628 0,-0.55025 0.44605,-0.99627 0.99628,-0.99627 0.55023,0 0.99628,0.44602 0.99628,0.99627 z" /><g
             id="g64" /><path
             id="path66"
             style="fill:#000000;fill-opacity:1;fill-rule:nonzero;stroke:none"
             d="m -7.59589,4.96068 c 0,0.55023 -0.44604,0.99627 -0.99627,0.99627 -0.55024,0 -0.99628,-0.44604 -0.99628,-0.99627 0,-0.55025 0.44604,-0.99628 0.99628,-0.99628 0.55023,0 0.99627,0.44603 0.99627,0.99628 z" /><g
             id="g68" /><path
             id="path70"
             style="fill:#000000;fill-opacity:1;fill-rule:nonzero;stroke:none"
             d="m -7.59589,-4.96068 c 0,0.55025 -0.44604,0.99628 -0.99627,0.99628 -0.55024,0 -0.99628,-0.44603 -0.99628,-0.99628 0,-0.55023 0.44604,-0.99627 0.99628,-0.99627 0.55023,0 0.99627,0.44604 0.99627,0.99627 z" /><g
             id="g72" /><path
             id="path74"
             style="fill:#000000;fill-opacity:1;fill-rule:nonzero;stroke:none"
             d="m 0.99628,-9.92137 c 0,0.55025 -0.44605,0.99627 -0.99628,0.99627 -0.55023,0 -0.99628,-0.44602 -0.99628,-0.99627 0,-0.55023 0.44605,-0.99628 0.99628,-0.99628 0.55023,0 0.99628,0.44605 0.99628,0.99628 z" /><g
             id="g76" /><path
             id="path78"
             style="fill:#000000;fill-opacity:1;fill-rule:nonzero;stroke:none"
             d="m 9.58844,-4.96068 c 0,0.55025 -0.44604,0.99628 -0.99628,0.99628 -0.55023,0 -0.99627,-0.44603 -0.99627,-0.99628 0,-0.55023 0.44604,-0.99627 0.99627,-0.99627 0.55024,0 0.99628,0.44604 0.99628,0.99627 z" /><g
             id="g80" /><path
             id="path82"
             style="fill:#000000;fill-opacity:1;fill-rule:nonzero;stroke:none"
             d="m 9.58844,4.96068 c 0,0.55023 -0.44604,0.99627 -0.99628,0.99627 -0.55023,0 -0.99627,-0.44604 -0.99627,-0.99627 0,-0.55025 0.44604,-0.99628 0.99627,-0.99628 0.55024,0 0.99628,0.44603 0.99628,0.99628 z" /><g
             id="g84"><path
               id="path86"
               style="fill:none;stroke:#000000;stroke-width:0.3985;stroke-linecap:butt;stroke-linejoin:miter;stroke-miterlimit:10;stroke-dasharray:none;stroke-opacity:0.3"
               d="M 8.59216,4.96068 0,9.92137 -8.59216,4.96068 V -4.96068 L 0,-9.92137 8.59216,-4.96068 Z" /></g><g
             id="g88" /><path
             id="path90"
             style="fill:#000000;fill-opacity:1;fill-rule:nonzero;stroke:none"
             d="m 0.99628,19.84276 c 0,0.55023 -0.44605,0.99628 -0.99628,0.99628 -0.55023,0 -0.99628,-0.44605 -0.99628,-0.99628 0,-0.55023 0.44605,-0.99628 0.99628,-0.99628 0.55023,0 0.99628,0.44605 0.99628,0.99628 z" /><g
             id="g92" /><path
             id="path94"
             style="fill:#000000;fill-opacity:1;fill-rule:nonzero;stroke:none"
             d="m -16.1881,9.92137 c 0,0.55023 -0.44604,0.99628 -0.99627,0.99628 -0.55023,0 -0.99628,-0.44605 -0.99628,-0.99628 0,-0.55025 0.44605,-0.99627 0.99628,-0.99627 0.55023,0 0.99627,0.44602 0.99627,0.99627 z" /><g
             id="g96" /><path
             id="path98"
             style="fill:#000000;fill-opacity:1;fill-rule:nonzero;stroke:none"
             d="m -16.1881,-9.92137 c 0,0.55025 -0.44604,0.99627 -0.99627,0.99627 -0.55023,0 -0.99628,-0.44602 -0.99628,-0.99627 0,-0.55023 0.44605,-0.99628 0.99628,-0.99628 0.55023,0 0.99627,0.44605 0.99627,0.99628 z" /><g
             id="g100" /><path
             id="path102"
             style="fill:#000000;fill-opacity:1;fill-rule:nonzero;stroke:none"
             d="m 0.99628,-19.84276 c 0,0.55023 -0.44605,0.99628 -0.99628,0.99628 -0.55023,0 -0.99628,-0.44605 -0.99628,-0.99628 0,-0.55023 0.44605,-0.99628 0.99628,-0.99628 0.55023,0 0.99628,0.44605 0.99628,0.99628 z" /><g
             id="g104" /><path
             id="path106"
             style="fill:#000000;fill-opacity:1;fill-rule:nonzero;stroke:none"
             d="m 18.18065,-9.92137 c 0,0.55025 -0.44605,0.99627 -0.99628,0.99627 -0.55023,0 -0.99627,-0.44602 -0.99627,-0.99627 0,-0.55023 0.44604,-0.99628 0.99627,-0.99628 0.55023,0 0.99628,0.44605 0.99628,0.99628 z" /><g
             id="g108" /><path
             id="path110"
             style="fill:#000000;fill-opacity:1;fill-rule:nonzero;stroke:none"
             d="m 18.18065,9.92137 c 0,0.55023 -0.44605,0.99628 -0.99628,0.99628 -0.55023,0 -0.99627,-0.44605 -0.99627,-0.99628 0,-0.55025 0.44604,-0.99627 0.99627,-0.99627 0.55023,0 0.99628,0.44602 0.99628,0.99627 z" /><g
             id="g112"><path
               id="path114"
               style="fill:none;stroke:#000000;stroke-width:0.3985;stroke-linecap:butt;stroke-linejoin:miter;stroke-miterlimit:10;stroke-dasharray:none;stroke-opacity:0.3"
               d="M 17.18437,9.92137 0,19.84276 -17.18437,9.92137 V -9.92137 L 0,-19.84276 17.18437,-9.92137 Z" /></g><g
             id="g116" /><path
             id="path118"
             style="fill:#000000;fill-opacity:1;fill-rule:nonzero;stroke:none"
             d="m 0.99628,29.76414 c 0,0.55024 -0.44605,0.99628 -0.99628,0.99628 -0.55023,0 -0.99628,-0.44604 -0.99628,-0.99628 0,-0.55023 0.44605,-0.99627 0.99628,-0.99627 0.55023,0 0.99628,0.44604 0.99628,0.99627 z" /><g
             id="g120" /><path
             id="path122"
             style="fill:#000000;fill-opacity:1;fill-rule:nonzero;stroke:none"
             d="m -24.7803,14.88206 c 0,0.55024 -0.44603,0.99628 -0.99628,0.99628 -0.55023,0 -0.99628,-0.44604 -0.99628,-0.99628 0,-0.55024 0.44605,-0.99627 0.99628,-0.99627 0.55025,0 0.99628,0.44603 0.99628,0.99627 z" /><g
             id="g124" /><path
             id="path126"
             style="fill:#000000;fill-opacity:1;fill-rule:nonzero;stroke:none"
             d="m -24.7803,-14.88206 c 0,0.55024 -0.44603,0.99627 -0.99628,0.99627 -0.55023,0 -0.99628,-0.44603 -0.99628,-0.99627 0,-0.55024 0.44605,-0.99628 0.99628,-0.99628 0.55025,0 0.99628,0.44604 0.99628,0.99628 z" /><g
             id="g128" /><path
             id="path130"
             style="fill:#000000;fill-opacity:1;fill-rule:nonzero;stroke:none"
             d="m 0.99628,-29.76414 c 0,0.55023 -0.44605,0.99627 -0.99628,0.99627 -0.55023,0 -0.99628,-0.44604 -0.99628,-0.99627 0,-0.55024 0.44605,-0.99628 0.99628,-0.99628 0.55023,0 0.99628,0.44604 0.99628,0.99628 z" /><g
             id="g132" /><path
             id="path134"
             style="fill:#000000;fill-opacity:1;fill-rule:nonzero;stroke:none"
             d="m 26.77286,-14.88206 c 0,0.55024 -0.44605,0.99627 -0.99628,0.99627 -0.55025,0 -0.99628,-0.44603 -0.99628,-0.99627 0,-0.55024 0.44603,-0.99628 0.99628,-0.99628 0.55023,0 0.99628,0.44604 0.99628,0.99628 z" /><g
             id="g136" /><path
             id="path138"
             style="fill:#000000;fill-opacity:1;fill-rule:nonzero;stroke:none"
             d="m 26.77286,14.88206 c 0,0.55024 -0.44605,0.99628 -0.99628,0.99628 -0.55025,0 -0.99628,-0.44604 -0.99628,-0.99628 0,-0.55024 0.44603,-0.99627 0.99628,-0.99627 0.55023,0 0.99628,0.44603 0.99628,0.99627 z" /><g
             id="g140"><path
               id="path142"
               style="fill:none;stroke:#000000;stroke-width:0.3985;stroke-linecap:butt;stroke-linejoin:miter;stroke-miterlimit:10;stroke-dasharray:none;stroke-opacity:0.3"
               d="M 25.77658,14.88206 0,29.76414 -25.77658,14.88206 V -14.88206 L 0,-29.76414 25.77658,-14.88206 Z" /></g><g
             id="g144" /><path
             id="path146"
             style="fill:#000000;fill-opacity:1;fill-rule:nonzero;stroke:none"
             d="m 0.99628,39.68553 c 0,0.55023 -0.44605,0.99628 -0.99628,0.99628 -0.55023,0 -0.99628,-0.44605 -0.99628,-0.99628 0,-0.55023 0.44605,-0.99628 0.99628,-0.99628 0.55023,0 0.99628,0.44605 0.99628,0.99628 z" /><g
             id="g148" /><path
             id="path150"
             style="fill:#000000;fill-opacity:1;fill-rule:nonzero;stroke:none"
             d="m -33.37248,19.84276 c 0,0.55023 -0.44605,0.99628 -0.99628,0.99628 -0.55023,0 -0.99628,-0.44605 -0.99628,-0.99628 0,-0.55023 0.44605,-0.99628 0.99628,-0.99628 0.55023,0 0.99628,0.44605 0.99628,0.99628 z" /><g
             id="g152" /><path
             id="path154"
             style="fill:#000000;fill-opacity:1;fill-rule:nonzero;stroke:none"
             d="m -33.37248,-19.84276 c 0,0.55023 -0.44605,0.99628 -0.99628,0.99628 -0.55023,0 -0.99628,-0.44605 -0.99628,-0.99628 0,-0.55023 0.44605,-0.99628 0.99628,-0.99628 0.55023,0 0.99628,0.44605 0.99628,0.99628 z" /><g
             id="g156" /><path
             id="path158"
             style="fill:#000000;fill-opacity:1;fill-rule:nonzero;stroke:none"
             d="m 0.99628,-39.68553 c 0,0.55023 -0.44605,0.99628 -0.99628,0.99628 -0.55023,0 -0.99628,-0.44605 -0.99628,-0.99628 0,-0.55023 0.44605,-0.99628 0.99628,-0.99628 0.55023,0 0.99628,0.44605 0.99628,0.99628 z" /><g
             id="g160" /><path
             id="path162"
             style="fill:#000000;fill-opacity:1;fill-rule:nonzero;stroke:none"
             d="m 35.36504,-19.84276 c 0,0.55023 -0.44605,0.99628 -0.99628,0.99628 -0.55023,0 -0.99628,-0.44605 -0.99628,-0.99628 0,-0.55023 0.44605,-0.99628 0.99628,-0.99628 0.55023,0 0.99628,0.44605 0.99628,0.99628 z" /><g
             id="g164" /><path
             id="path166"
             style="fill:#000000;fill-opacity:1;fill-rule:nonzero;stroke:none"
             d="m 35.36504,19.84276 c 0,0.55023 -0.44605,0.99628 -0.99628,0.99628 -0.55023,0 -0.99628,-0.44605 -0.99628,-0.99628 0,-0.55023 0.44605,-0.99628 0.99628,-0.99628 0.55023,0 0.99628,0.44605 0.99628,0.99628 z" /><g
             id="g168"><path
               id="path170"
               style="fill:none;stroke:#000000;stroke-width:0.3985;stroke-linecap:butt;stroke-linejoin:miter;stroke-miterlimit:10;stroke-dasharray:none;stroke-opacity:0.3"
               d="M 34.36876,19.84276 0,39.68553 -34.36876,19.84276 V -19.84276 L 0,-39.68553 34.36876,-19.84276 Z" /></g><g
             id="g172" /><path
             id="path174"
             style="fill:#000000;fill-opacity:1;fill-rule:nonzero;stroke:none"
             d="m 0.99628,49.60692 c 0,0.55023 -0.44605,0.99628 -0.99628,0.99628 -0.55023,0 -0.99628,-0.44605 -0.99628,-0.99628 0,-0.55023 0.44605,-0.99628 0.99628,-0.99628 0.55023,0 0.99628,0.44605 0.99628,0.99628 z" /><g
             id="g176" /><path
             id="path178"
             style="fill:#000000;fill-opacity:1;fill-rule:nonzero;stroke:none"
             d="m -41.96469,24.80345 c 0,0.55023 -0.44605,0.99628 -0.99628,0.99628 -0.55023,0 -0.99627,-0.44605 -0.99627,-0.99628 0,-0.55023 0.44604,-0.99628 0.99627,-0.99628 0.55023,0 0.99628,0.44605 0.99628,0.99628 z" /><g
             id="g180" /><path
             id="path182"
             style="fill:#000000;fill-opacity:1;fill-rule:nonzero;stroke:none"
             d="m -41.96469,-24.80345 c 0,0.55023 -0.44605,0.99628 -0.99628,0.99628 -0.55023,0 -0.99627,-0.44605 -0.99627,-0.99628 0,-0.55023 0.44604,-0.99628 0.99627,-0.99628 0.55023,0 0.99628,0.44605 0.99628,0.99628 z" /><g
             id="g184" /><path
             id="path186"
             style="fill:#000000;fill-opacity:1;fill-rule:nonzero;stroke:none"
             d="m 0.99628,-49.60692 c 0,0.55023 -0.44605,0.99628 -0.99628,0.99628 -0.55023,0 -0.99628,-0.44605 -0.99628,-0.99628 0,-0.55023 0.44605,-0.99628 0.99628,-0.99628 0.55023,0 0.99628,0.44605 0.99628,0.99628 z" /><g
             id="g188" /><path
             id="path190"
             style="fill:#000000;fill-opacity:1;fill-rule:nonzero;stroke:none"
             d="m 43.95724,-24.80345 c 0,0.55023 -0.44604,0.99628 -0.99627,0.99628 -0.55023,0 -0.99628,-0.44605 -0.99628,-0.99628 0,-0.55023 0.44605,-0.99628 0.99628,-0.99628 0.55023,0 0.99627,0.44605 0.99627,0.99628 z" /><g
             id="g192" /><path
             id="path194"
             style="fill:#000000;fill-opacity:1;fill-rule:nonzero;stroke:none"
             d="m 43.95724,24.80345 c 0,0.55023 -0.44604,0.99628 -0.99627,0.99628 -0.55023,0 -0.99628,-0.44605 -0.99628,-0.99628 0,-0.55023 0.44605,-0.99628 0.99628,-0.99628 0.55023,0 0.99627,0.44605 0.99627,0.99628 z" /><g
             id="g196"><path
               id="path198"
               style="fill:none;stroke:#000000;stroke-width:0.3985;stroke-linecap:butt;stroke-linejoin:miter;stroke-miterlimit:10;stroke-dasharray:none;stroke-opacity:0.3"
               d="M 42.96097,24.80345 0,49.60692 -42.96097,24.80345 v -49.6069 L 0,-49.60692 42.96097,-24.80345 Z" /></g><g
             id="g200" /><path
             id="path202"
             style="fill:#000000;fill-opacity:1;fill-rule:nonzero;stroke:none"
             d="m 0.99628,59.5283 c 0,0.55025 -0.44605,0.99628 -0.99628,0.99628 -0.55023,0 -0.99628,-0.44603 -0.99628,-0.99628 0,-0.55023 0.44605,-0.99627 0.99628,-0.99627 0.55023,0 0.99628,0.44604 0.99628,0.99627 z" /><g
             id="g204" /><path
             id="path206"
             style="fill:#000000;fill-opacity:1;fill-rule:nonzero;stroke:none"
             d="m -50.5569,29.76414 c 0,0.55024 -0.44603,0.99628 -0.99628,0.99628 -0.55023,0 -0.99627,-0.44604 -0.99627,-0.99628 0,-0.55023 0.44604,-0.99627 0.99627,-0.99627 0.55025,0 0.99628,0.44604 0.99628,0.99627 z" /><g
             id="g208" /><path
             id="path210"
             style="fill:#000000;fill-opacity:1;fill-rule:nonzero;stroke:none"
             d="m -50.5569,-29.76414 c 0,0.55023 -0.44603,0.99627 -0.99628,0.99627 -0.55023,0 -0.99627,-0.44604 -0.99627,-0.99627 0,-0.55024 0.44604,-0.99628 0.99627,-0.99628 0.55025,0 0.99628,0.44604 0.99628,0.99628 z" /><g
             id="g212" /><path
             id="path214"
             style="fill:#000000;fill-opacity:1;fill-rule:nonzero;stroke:none"
             d="m 0.99628,-59.5283 c 0,0.55023 -0.44605,0.99627 -0.99628,0.99627 -0.55023,0 -0.99628,-0.44604 -0.99628,-0.99627 0,-0.55025 0.44605,-0.99628 0.99628,-0.99628 0.55023,0 0.99628,0.44603 0.99628,0.99628 z" /><g
             id="g216" /><path
             id="path218"
             style="fill:#000000;fill-opacity:1;fill-rule:nonzero;stroke:none"
             d="m 52.54945,-29.76414 c 0,0.55023 -0.44604,0.99627 -0.99627,0.99627 -0.55025,0 -0.99628,-0.44604 -0.99628,-0.99627 0,-0.55024 0.44603,-0.99628 0.99628,-0.99628 0.55023,0 0.99627,0.44604 0.99627,0.99628 z" /><g
             id="g220" /><path
             id="path222"
             style="fill:#000000;fill-opacity:1;fill-rule:nonzero;stroke:none"
             d="m 52.54945,29.76414 c 0,0.55024 -0.44604,0.99628 -0.99627,0.99628 -0.55025,0 -0.99628,-0.44604 -0.99628,-0.99628 0,-0.55023 0.44603,-0.99627 0.99628,-0.99627 0.55023,0 0.99627,0.44604 0.99627,0.99627 z" /><g
             id="g224"><path
               id="path226"
               style="fill:none;stroke:#000000;stroke-width:0.3985;stroke-linecap:butt;stroke-linejoin:miter;stroke-miterlimit:10;stroke-dasharray:none;stroke-opacity:0.3"
               d="M 51.55318,29.76414 0,59.5283 -51.55318,29.76414 V -29.76414 L 0,-59.5283 51.55318,-29.76414 Z" /></g><g
             id="g228" /><path
             id="path230"
             style="fill:#000000;fill-opacity:1;fill-rule:nonzero;stroke:none"
             d="m 0.99628,69.44969 c 0,0.55025 -0.44605,0.99628 -0.99628,0.99628 -0.55023,0 -0.99628,-0.44603 -0.99628,-0.99628 0,-0.55023 0.44605,-0.99628 0.99628,-0.99628 0.55023,0 0.99628,0.44605 0.99628,0.99628 z" /><g
             id="g232" /><path
             id="path234"
             style="fill:#000000;fill-opacity:1;fill-rule:nonzero;stroke:none"
             d="m -59.14908,34.72484 c 0,0.55023 -0.44604,0.99628 -0.99628,0.99628 -0.55023,0 -0.99627,-0.44605 -0.99627,-0.99628 0,-0.55024 0.44604,-0.99628 0.99627,-0.99628 0.55024,0 0.99628,0.44604 0.99628,0.99628 z" /><g
             id="g236" /><path
             id="path238"
             style="fill:#000000;fill-opacity:1;fill-rule:nonzero;stroke:none"
             d="m -59.14908,-34.72484 c 0,0.55024 -0.44604,0.99628 -0.99628,0.99628 -0.55023,0 -0.99627,-0.44604 -0.99627,-0.99628 0,-0.55023 0.44604,-0.99628 0.99627,-0.99628 0.55024,0 0.99628,0.44605 0.99628,0.99628 z" /><g
             id="g240" /><path
             id="path242"
             style="fill:#000000;fill-opacity:1;fill-rule:nonzero;stroke:none"
             d="m 0.99628,-69.44969 c 0,0.55023 -0.44605,0.99628 -0.99628,0.99628 -0.55023,0 -0.99628,-0.44605 -0.99628,-0.99628 0,-0.55025 0.44605,-0.99628 0.99628,-0.99628 0.55023,0 0.99628,0.44603 0.99628,0.99628 z" /><g
             id="g244" /><path
             id="path246"
             style="fill:#000000;fill-opacity:1;fill-rule:nonzero;stroke:none"
             d="m 61.14163,-34.72484 c 0,0.55024 -0.44604,0.99628 -0.99627,0.99628 -0.55024,0 -0.99628,-0.44604 -0.99628,-0.99628 0,-0.55023 0.44604,-0.99628 0.99628,-0.99628 0.55023,0 0.99627,0.44605 0.99627,0.99628 z" /><g
             id="g248" /><path
             id="path250"
             style="fill:#000000;fill-opacity:1;fill-rule:nonzero;stroke:none"
             d="m 61.14163,34.72484 c 0,0.55023 -0.44604,0.99628 -0.99627,0.99628 -0.55024,0 -0.99628,-0.44605 -0.99628,-0.99628 0,-0.55024 0.44604,-0.99628 0.99628,-0.99628 0.55023,0 0.99627,0.44604 0.99627,0.99628 z" /><g
             id="g252"><path
               id="path254"
               style="fill:none;stroke:#000000;stroke-width:0.3985;stroke-linecap:butt;stroke-linejoin:miter;stroke-miterlimit:10;stroke-dasharray:none;stroke-opacity:0.3"
               d="M 60.14536,34.72484 0,69.44969 -60.14536,34.72484 V -34.72484 L 0,-69.44969 60.14536,-34.72484 Z" /></g><g
             id="g256" /><path
             id="path258"
             style="fill:#000000;fill-opacity:1;fill-rule:nonzero;stroke:none"
             d="m 0.99628,79.3711 c 0,0.55023 -0.44605,0.99627 -0.99628,0.99627 -0.55023,0 -0.99628,-0.44604 -0.99628,-0.99627 0,-0.55025 0.44605,-0.99628 0.99628,-0.99628 0.55023,0 0.99628,0.44603 0.99628,0.99628 z" /><g
             id="g260" /><path
             id="path262"
             style="fill:#000000;fill-opacity:1;fill-rule:nonzero;stroke:none"
             d="m -67.74129,39.68553 c 0,0.55023 -0.44604,0.99628 -0.99627,0.99628 -0.55024,0 -0.99628,-0.44605 -0.99628,-0.99628 0,-0.55023 0.44604,-0.99628 0.99628,-0.99628 0.55023,0 0.99627,0.44605 0.99627,0.99628 z" /><g
             id="g264" /><path
             id="path266"
             style="fill:#000000;fill-opacity:1;fill-rule:nonzero;stroke:none"
             d="m -67.74129,-39.68553 c 0,0.55023 -0.44604,0.99628 -0.99627,0.99628 -0.55024,0 -0.99628,-0.44605 -0.99628,-0.99628 0,-0.55023 0.44604,-0.99628 0.99628,-0.99628 0.55023,0 0.99627,0.44605 0.99627,0.99628 z" /><g
             id="g268" /><path
             id="path270"
             style="fill:#000000;fill-opacity:1;fill-rule:nonzero;stroke:none"
             d="m 0.99628,-79.3711 c 0,0.55025 -0.44605,0.99628 -0.99628,0.99628 -0.55023,0 -0.99628,-0.44603 -0.99628,-0.99628 0,-0.55023 0.44605,-0.99627 0.99628,-0.99627 0.55023,0 0.99628,0.44604 0.99628,0.99627 z" /><g
             id="g272" /><path
             id="path274"
             style="fill:#000000;fill-opacity:1;fill-rule:nonzero;stroke:none"
             d="m 69.73384,-39.68553 c 0,0.55023 -0.44604,0.99628 -0.99628,0.99628 -0.55023,0 -0.99627,-0.44605 -0.99627,-0.99628 0,-0.55023 0.44604,-0.99628 0.99627,-0.99628 0.55024,0 0.99628,0.44605 0.99628,0.99628 z" /><g
             id="g276" /><path
             id="path278"
             style="fill:#000000;fill-opacity:1;fill-rule:nonzero;stroke:none"
             d="m 69.73384,39.68553 c 0,0.55023 -0.44604,0.99628 -0.99628,0.99628 -0.55023,0 -0.99627,-0.44605 -0.99627,-0.99628 0,-0.55023 0.44604,-0.99628 0.99627,-0.99628 0.55024,0 0.99628,0.44605 0.99628,0.99628 z" /><g
             id="g280"><path
               id="path282"
               style="fill:none;stroke:#000000;stroke-width:0.3985;stroke-linecap:butt;stroke-linejoin:miter;stroke-miterlimit:10;stroke-dasharray:none;stroke-opacity:0.3"
               d="M 68.73756,39.68553 0,79.3711 -68.73756,39.68553 V -39.68553 L 0,-79.3711 68.73756,-39.68553 Z" /></g><g
             id="g284" /><path
             id="path286"
             style="fill:#000000;fill-opacity:1;fill-rule:nonzero;stroke:none"
             d="m 0.99628,89.29248 c 0,0.55023 -0.44605,0.99628 -0.99628,0.99628 -0.55023,0 -0.99628,-0.44605 -0.99628,-0.99628 0,-0.55025 0.44605,-0.99628 0.99628,-0.99628 0.55023,0 0.99628,0.44603 0.99628,0.99628 z" /><g
             id="g288" /><path
             id="path290"
             style="fill:#000000;fill-opacity:1;fill-rule:nonzero;stroke:none"
             d="m -76.3335,44.64622 c 0,0.55024 -0.44603,0.99628 -0.99627,0.99628 -0.55023,0 -0.99628,-0.44604 -0.99628,-0.99628 0,-0.55022 0.44605,-0.99627 0.99628,-0.99627 0.55024,0 0.99627,0.44605 0.99627,0.99627 z" /><g
             id="g292" /><path
             id="path294"
             style="fill:#000000;fill-opacity:1;fill-rule:nonzero;stroke:none"
             d="m -76.3335,-44.64622 c 0,0.55022 -0.44603,0.99627 -0.99627,0.99627 -0.55023,0 -0.99628,-0.44605 -0.99628,-0.99627 0,-0.55024 0.44605,-0.99628 0.99628,-0.99628 0.55024,0 0.99627,0.44604 0.99627,0.99628 z" /><g
             id="g296" /><path
             id="path298"
             style="fill:#000000;fill-opacity:1;fill-rule:nonzero;stroke:none"
             d="m 0.99628,-89.29248 c 0,0.55025 -0.44605,0.99628 -0.99628,0.99628 -0.55023,0 -0.99628,-0.44603 -0.99628,-0.99628 0,-0.55023 0.44605,-0.99628 0.99628,-0.99628 0.55023,0 0.99628,0.44605 0.99628,0.99628 z" /><g
             id="g300" /><path
             id="path302"
             style="fill:#000000;fill-opacity:1;fill-rule:nonzero;stroke:none"
             d="m 78.32605,-44.64622 c 0,0.55022 -0.44605,0.99627 -0.99628,0.99627 -0.55024,0 -0.99627,-0.44605 -0.99627,-0.99627 0,-0.55024 0.44603,-0.99628 0.99627,-0.99628 0.55023,0 0.99628,0.44604 0.99628,0.99628 z" /><g
             id="g304" /><path
             id="path306"
             style="fill:#000000;fill-opacity:1;fill-rule:nonzero;stroke:none"
             d="m 78.32605,44.64622 c 0,0.55024 -0.44605,0.99628 -0.99628,0.99628 -0.55024,0 -0.99627,-0.44604 -0.99627,-0.99628 0,-0.55022 0.44603,-0.99627 0.99627,-0.99627 0.55023,0 0.99628,0.44605 0.99628,0.99627 z" /><g
             id="g308"><path
               id="path310"
               style="fill:none;stroke:#000000;stroke-width:0.3985;stroke-linecap:butt;stroke-linejoin:miter;stroke-miterlimit:10;stroke-dasharray:none;stroke-opacity:0.3"
               d="M 77.32977,44.64622 0,89.29248 -77.32977,44.64622 V -44.64622 L 0,-89.29248 77.32977,-44.64622 Z" /></g><g
             id="g312" /><path
             id="path314"
             style="fill:#000000;fill-opacity:1;fill-rule:nonzero;stroke:none"
             d="m 0.99628,99.21387 c 0,0.55023 -0.44605,0.99627 -0.99628,0.99627 -0.55023,0 -0.99628,-0.44604 -0.99628,-0.99627 0,-0.55023 0.44605,-0.99628 0.99628,-0.99628 0.55023,0 0.99628,0.44605 0.99628,0.99628 z" /><g
             id="g316" /><path
             id="path318"
             style="fill:#000000;fill-opacity:1;fill-rule:nonzero;stroke:none"
             d="m -84.92567,49.60692 c 0,0.55023 -0.44605,0.99628 -0.99628,0.99628 -0.55023,0 -0.99628,-0.44605 -0.99628,-0.99628 0,-0.55023 0.44605,-0.99628 0.99628,-0.99628 0.55023,0 0.99628,0.44605 0.99628,0.99628 z" /><g
             id="g320" /><path
             id="path322"
             style="fill:#000000;fill-opacity:1;fill-rule:nonzero;stroke:none"
             d="m -84.92567,-49.60692 c 0,0.55023 -0.44605,0.99628 -0.99628,0.99628 -0.55023,0 -0.99628,-0.44605 -0.99628,-0.99628 0,-0.55023 0.44605,-0.99628 0.99628,-0.99628 0.55023,0 0.99628,0.44605 0.99628,0.99628 z" /><g
             id="g324" /><path
             id="path326"
             style="fill:#000000;fill-opacity:1;fill-rule:nonzero;stroke:none"
             d="m 0.99628,-99.21387 c 0,0.55023 -0.44605,0.99628 -0.99628,0.99628 -0.55023,0 -0.99628,-0.44605 -0.99628,-0.99628 0,-0.55023 0.44605,-0.99627 0.99628,-0.99627 0.55023,0 0.99628,0.44604 0.99628,0.99627 z" /><g
             id="g328" /><path
             id="path330"
             style="fill:#000000;fill-opacity:1;fill-rule:nonzero;stroke:none"
             d="m 86.91823,-49.60692 c 0,0.55023 -0.44605,0.99628 -0.99628,0.99628 -0.55023,0 -0.99628,-0.44605 -0.99628,-0.99628 0,-0.55023 0.44605,-0.99628 0.99628,-0.99628 0.55023,0 0.99628,0.44605 0.99628,0.99628 z" /><g
             id="g332" /><path
             id="path334"
             style="fill:#000000;fill-opacity:1;fill-rule:nonzero;stroke:none"
             d="m 86.91823,49.60692 c 0,0.55023 -0.44605,0.99628 -0.99628,0.99628 -0.55023,0 -0.99628,-0.44605 -0.99628,-0.99628 0,-0.55023 0.44605,-0.99628 0.99628,-0.99628 0.55023,0 0.99628,0.44605 0.99628,0.99628 z" /><g
             id="g336"><path
               id="path338"
               style="fill:none;stroke:#000000;stroke-width:0.3985;stroke-linecap:butt;stroke-linejoin:miter;stroke-miterlimit:10;stroke-dasharray:none;stroke-opacity:0.3"
               d="M 85.92195,49.60692 0,99.21387 -85.92195,49.60692 V -49.60692 L 0,-99.21387 85.92195,-49.60692 Z" /></g><g
             id="g340"><g
               transform="translate(-24.907,127.09)"
               id="g342"><g
                 id="g344"><g
                   transform="translate(-111.335,-263.728)"
                   id="g346"><text
                     id="text352"
                     style="font-variant:normal;font-weight:normal;font-size:8.96640015px;font-family:CMR9;-inkscape-font-specification:CMR9;writing-mode:lr-tb;fill:#000000;fill-opacity:1;fill-rule:nonzero;stroke:none"
                     transform="matrix(1,0,0,-1,122.995,263.728)"><tspan
                       id="tspan348"
                       y="0"
                       x="0 6.5266423 11.394501 16.514315 19.074223 21.63413">Bodily</tspan><tspan
                       id="tspan350"
                       y="10.959"
                       x="-5.0819998 -2.2665503 2.8532641 7.9730783 12.06893 15.6528 18.212708 22.820539 27.940355">functions</tspan></text>
<g
                     transform="translate(111.335,263.728)"
                     id="g354" /></g></g><g
                 transform="translate(24.907,-127.09)"
                 id="g356" /></g></g><g
             id="g358"><g
               transform="translate(-132.921,71.079)"
               id="g360"><g
                 id="g362"><g
                   transform="translate(-3.321,-207.717)"
                   id="g364"><text
                     id="text372"
                     style="font-variant:normal;font-weight:normal;font-size:8.96640015px;font-family:CMR9;-inkscape-font-specification:CMR9;writing-mode:lr-tb;fill:#000000;fill-opacity:1;fill-rule:nonzero;stroke:none"
                     transform="matrix(1,0,0,-1,14.147,207.717)"><tspan
                       id="tspan366"
                       y="0"
                       x="0 8.4463491 12.545787 17.405575 20.989447 25.597279">Mental</tspan><tspan
                       id="tspan368"
                       y="10.959"
                       x="-9.368 -6.5525503 -1.432736 3.6870785 7.7829299 11.3668 13.926707 18.53454 23.654354 30.364809">functions&amp;</tspan><tspan
                       id="tspan370"
                       y="21.917999"
                       x="-8.8699999 -3.49016 0.60927808 4.2137709 8.3096228 12.400094 17.519909 21.103779 23.663685 28.271519 33.391335">perceptions</tspan></text>
<g
                     transform="translate(3.321,207.717)"
                     id="g374" /></g></g><g
                 transform="translate(132.921,-71.079)"
                 id="g376" /></g></g><g
             id="g378"><g
               transform="translate(-132.921,-59.996)"
               id="g380"><g
                 id="g382"><g
                   transform="translate(-3.321,-76.642)"
                   id="g384"><text
                     id="text390"
                     style="font-variant:normal;font-weight:normal;font-size:8.96640015px;font-family:CMR9;-inkscape-font-specification:CMR9;writing-mode:lr-tb;fill:#000000;fill-opacity:1;fill-rule:nonzero;stroke:none"
                     transform="matrix(1,0,0,-1,10.81,76.642)"><tspan
                       id="tspan386"
                       y="0"
                       x="0 5.1198144 10.239629 12.799536 16.404028 18.963936 22.547806 27.66762 32.275452">Spiritual</tspan><tspan
                       id="tspan388"
                       y="10.959"
                       x="-2.8329999 2.2868145 4.8467216 12.526443 16.625881 21.745695 25.380674 27.940582 32.548416">dimension</tspan></text>
<g
                     transform="translate(3.321,76.642)"
                     id="g392" /></g></g><g
                 transform="translate(132.921,59.996)"
                 id="g394" /></g></g><g
             id="g396"><g
               transform="translate(-24.907,-122.359)"
               id="g398"><g
                 id="g400"><g
                   transform="translate(-111.335,-14.279)"
                   id="g402"><text
                     id="text408"
                     style="font-variant:normal;font-weight:normal;font-size:8.96640015px;font-family:CMR9;-inkscape-font-specification:CMR9;writing-mode:lr-tb;fill:#000000;fill-opacity:1;fill-rule:nonzero;stroke:none"
                     transform="matrix(1,0,0,-1,121.139,14.279)"><tspan
                       id="tspan404"
                       y="0"
                       x="0 7.1677403 12.287555 16.895388 19.455296 22.015202 25.339046">Quality</tspan><tspan
                       id="tspan406"
                       y="10.958"
                       x="3.8380001 8.4458332 14.336758 16.896666 19.456572 22.272022">oflife</tspan></text>
<g
                     transform="translate(111.335,14.279)"
                     id="g410" /></g></g><g
                 transform="translate(24.907,122.359)"
                 id="g412" /></g></g><g
             id="g414"><g
               transform="translate(83.108,-53.645)"
               id="g416"><g
                 id="g418"><g
                   transform="translate(-219.35,-82.993)"
                   id="g420"><text
                     id="text428"
                     style="font-variant:normal;font-weight:normal;font-size:8.96640015px;font-family:CMR9;-inkscape-font-specification:CMR9;writing-mode:lr-tb;fill:#000000;fill-opacity:1;fill-rule:nonzero;stroke:none"
                     transform="matrix(1,0,0,-1,227.234,82.993)"><tspan
                       id="tspan422"
                       y="0"
                       x="0 5.1198144 9.9787064 14.074558 16.634466 21.242298 26.87768">Social&amp;</tspan><tspan
                       id="tspan424"
                       y="10.959"
                       x="1.278 6.3978143 11.256706 15.352558 17.912466 22.011904 25.595774 30.203606">Societal</tspan><tspan
                       id="tspan426"
                       y="21.917999"
                       x="-7.8839998 -2.7641857 1.8436474 5.4481401 9.0320101 11.591917 15.687769 18.247677 23.367491 27.975323 31.559193 34.119102 38.726933">participation</tspan></text>
<g
                     transform="translate(219.35,82.993)"
                     id="g430" /></g></g><g
                 transform="translate(-83.108,53.645)"
                 id="g432" /></g></g><g
             id="g434"><g
               transform="translate(83.108,65.6)"
               id="g436"><g
                 id="g438"><g
                   transform="translate(-219.35,-202.238)"
                   id="g440"><text
                     id="text446"
                     style="font-variant:normal;font-weight:normal;font-size:8.96640015px;font-family:CMR9;-inkscape-font-specification:CMR9;writing-mode:lr-tb;fill:#000000;fill-opacity:1;fill-rule:nonzero;stroke:none"
                     transform="matrix(1,0,0,-1,233.442,202.238)"><tspan
                       id="tspan442"
                       y="0"
                       x="0 7.0386238 11.646457 14.206365 16.766272">Daily</tspan><tspan
                       id="tspan444"
                       y="10.959"
                       x="-11.84 -9.0245504 -3.904736 1.2150784 5.3109298 8.8948002 11.454707 16.06254 21.182354 23.742262 28.862076">functioning</tspan></text>
<g
                     transform="translate(219.35,202.238)"
                     id="g448" /></g></g><g
                 transform="translate(-83.108,-65.6)"
                 id="g450" /></g></g></g></g></g></g></svg>