<?xml version="1.0" encoding="UTF-8" standalone="no"?>
<svg
   xmlns:dc="http://purl.org/dc/elements/1.1/"
   xmlns:cc="http://creativecommons.org/ns#"
   xmlns:rdf="http://www.w3.org/1999/02/22-rdf-syntax-ns#"
   xmlns:svg="http://www.w3.org/2000/svg"
   xmlns="http://www.w3.org/2000/svg"
   viewBox="0 0 402.64532 366.61734"
   height="366.61734"
   width="402.64532"
   xml:space="preserve"
   id="svg2"
   version="1.1"><metadata
     id="metadata8"><rdf:RDF><cc:Work
         rdf:about=""><dc:format>image/svg+xml</dc:format><dc:type
           rdf:resource="http://purl.org/dc/dcmitype/StillImage" /></cc:Work></rdf:RDF></metadata><defs
     id="defs6" /><g
     transform="matrix(1.3333333,0,0,-1.3333333,0,366.61733)"
     id="g10"><g
       transform="translate(153.566,137.482)"
       id="g12"><g
         id="g14"><g
           id="g16"><g
             id="g18" /><path
             id="path20"
             style="fill:none;stroke:#000000;stroke-width:0.3985;stroke-linecap:butt;stroke-linejoin:miter;stroke-miterlimit:10;stroke-dasharray:none;stroke-opacity:1"
             d="M 0,0 V 99.21387" /><path
             id="path22"
             style="fill:none;stroke:#000000;stroke-width:0.3985;stroke-linecap:butt;stroke-linejoin:miter;stroke-miterlimit:10;stroke-dasharray:none;stroke-opacity:1"
             d="M 0,0 -85.92195,49.60692" /><path
             id="path24"
             style="fill:none;stroke:#000000;stroke-width:0.3985;stroke-linecap:butt;stroke-linejoin:miter;stroke-miterlimit:10;stroke-dasharray:none;stroke-opacity:1"
             d="M 0,0 -85.92195,-49.60692" /><path
             id="path26"
             style="fill:none;stroke:#000000;stroke-width:0.3985;stroke-linecap:butt;stroke-linejoin:miter;stroke-miterlimit:10;stroke-dasharray:none;stroke-opacity:1"
             d="M 0,0 V -99.21387" /><path
             id="path28"
             style="fill:none;stroke:#000000;stroke-width:0.3985;stroke-linecap:butt;stroke-linejoin:miter;stroke-miterlimit:10;stroke-dasharray:none;stroke-opacity:1"
             d="M 0,0 85.92195,-49.60692" /><path
             id="path30"
             style="fill:none;stroke:#000000;stroke-width:0.3985;stroke-linecap:butt;stroke-linejoin:miter;stroke-miterlimit:10;stroke-dasharray:none;stroke-opacity:1"
             d="M 0,0 85.92195,49.60692" /><g
             id="g32" /><path
             id="path34"
             style="fill:#000000;fill-opacity:1;fill-rule:nonzero;stroke:none"
             d="M 0.99628,0 C 0.99628,0.55023 0.55023,0.99628 0,0.99628 -0.55023,0.99628 -0.99628,0.55023 -0.99628,0 c 0,-0.55023 0.44605,-0.99628 0.99628,-0.99628 0.55023,0 0.99628,0.44605 0.99628,0.99628 z" /><g
             id="g36" /><path
             id="path38"
             style="fill:#000000;fill-opacity:1;fill-rule:nonzero;stroke:none"
             d="M 0.99628,0 C 0.99628,0.55023 0.55023,0.99628 0,0.99628 -0.55023,0.99628 -0.99628,0.55023 -0.99628,0 c 0,-0.55023 0.44605,-0.99628 0.99628,-0.99628 0.55023,0 0.99628,0.44605 0.99628,0.99628 z" /><g
             id="g40" /><path
             id="path42"
             style="fill:#000000;fill-opacity:1;fill-rule:nonzero;stroke:none"
             d="M 0.99628,0 C 0.99628,0.55023 0.55023,0.99628 0,0.99628 -0.55023,0.99628 -0.99628,0.55023 -0.99628,0 c 0,-0.55023 0.44605,-0.99628 0.99628,-0.99628 0.55023,0 0.99628,0.44605 0.99628,0.99628 z" /><g
             id="g44" /><path
             id="path46"
             style="fill:#000000;fill-opacity:1;fill-rule:nonzero;stroke:none"
             d="M 0.99628,0 C 0.99628,0.55023 0.55023,0.99628 0,0.99628 -0.55023,0.99628 -0.99628,0.55023 -0.99628,0 c 0,-0.55023 0.44605,-0.99628 0.99628,-0.99628 0.55023,0 0.99628,0.44605 0.99628,0.99628 z" /><g
             id="g48" /><path
             id="path50"
             style="fill:#000000;fill-opacity:1;fill-rule:nonzero;stroke:none"
             d="M 0.99628,0 C 0.99628,0.55023 0.55023,0.99628 0,0.99628 -0.55023,0.99628 -0.99628,0.55023 -0.99628,0 c 0,-0.55023 0.44605,-0.99628 0.99628,-0.99628 0.55023,0 0.99628,0.44605 0.99628,0.99628 z" /><g
             id="g52" /><path
             id="path54"
             style="fill:#000000;fill-opacity:1;fill-rule:nonzero;stroke:none"
             d="M 0.99628,0 C 0.99628,0.55023 0.55023,0.99628 0,0.99628 -0.55023,0.99628 -0.99628,0.55023 -0.99628,0 c 0,-0.55023 0.44605,-0.99628 0.99628,-0.99628 0.55023,0 0.99628,0.44605 0.99628,0.99628 z" /><g
             id="g56"><path
               id="path58"
               style="fill:none;stroke:#000000;stroke-width:0.3985;stroke-linecap:butt;stroke-linejoin:miter;stroke-miterlimit:10;stroke-dasharray:none;stroke-opacity:0.3"
               d="M 0,0 V 0 0 0 0 0 Z" /></g><g
             id="g60" /><path
             id="path62"
             style="fill:#000000;fill-opacity:1;fill-rule:nonzero;stroke:none"
             d="m 0.99628,9.92137 c 0,0.55023 -0.44605,0.99628 -0.99628,0.99628 -0.55023,0 -0.99628,-0.44605 -0.99628,-0.99628 0,-0.55025 0.44605,-0.99627 0.99628,-0.99627 0.55023,0 0.99628,0.44602 0.99628,0.99627 z" /><g
             id="g64" /><path
             id="path66"
             style="fill:#000000;fill-opacity:1;fill-rule:nonzero;stroke:none"
             d="m -7.59589,4.96068 c 0,0.55023 -0.44604,0.99627 -0.99627,0.99627 -0.55024,0 -0.99628,-0.44604 -0.99628,-0.99627 0,-0.55025 0.44604,-0.99628 0.99628,-0.99628 0.55023,0 0.99627,0.44603 0.99627,0.99628 z" /><g
             id="g68" /><path
             id="path70"
             style="fill:#000000;fill-opacity:1;fill-rule:nonzero;stroke:none"
             d="m -7.59589,-4.96068 c 0,0.55025 -0.44604,0.99628 -0.99627,0.99628 -0.55024,0 -0.99628,-0.44603 -0.99628,-0.99628 0,-0.55023 0.44604,-0.99627 0.99628,-0.99627 0.55023,0 0.99627,0.44604 0.99627,0.99627 z" /><g
             id="g72" /><path
             id="path74"
             style="fill:#000000;fill-opacity:1;fill-rule:nonzero;stroke:none"
             d="m 0.99628,-9.92137 c 0,0.55025 -0.44605,0.99627 -0.99628,0.99627 -0.55023,0 -0.99628,-0.44602 -0.99628,-0.99627 0,-0.55023 0.44605,-0.99628 0.99628,-0.99628 0.55023,0 0.99628,0.44605 0.99628,0.99628 z" /><g
             id="g76" /><path
             id="path78"
             style="fill:#000000;fill-opacity:1;fill-rule:nonzero;stroke:none"
             d="m 9.58844,-4.96068 c 0,0.55025 -0.44604,0.99628 -0.99628,0.99628 -0.55023,0 -0.99627,-0.44603 -0.99627,-0.99628 0,-0.55023 0.44604,-0.99627 0.99627,-0.99627 0.55024,0 0.99628,0.44604 0.99628,0.99627 z" /><g
             id="g80" /><path
             id="path82"
             style="fill:#000000;fill-opacity:1;fill-rule:nonzero;stroke:none"
             d="m 9.58844,4.96068 c 0,0.55023 -0.44604,0.99627 -0.99628,0.99627 -0.55023,0 -0.99627,-0.44604 -0.99627,-0.99627 0,-0.55025 0.44604,-0.99628 0.99627,-0.99628 0.55024,0 0.99628,0.44603 0.99628,0.99628 z" /><g
             id="g84"><path
               id="path86"
               style="fill:none;stroke:#000000;stroke-width:0.3985;stroke-linecap:butt;stroke-linejoin:miter;stroke-miterlimit:10;stroke-dasharray:none;stroke-opacity:0.3"
               d="M 8.59216,4.96068 0,9.92137 -8.59216,4.96068 V -4.96068 L 0,-9.92137 8.59216,-4.96068 Z" /></g><g
             id="g88" /><path
             id="path90"
             style="fill:#000000;fill-opacity:1;fill-rule:nonzero;stroke:none"
             d="m 0.99628,19.84276 c 0,0.55023 -0.44605,0.99628 -0.99628,0.99628 -0.55023,0 -0.99628,-0.44605 -0.99628,-0.99628 0,-0.55023 0.44605,-0.99628 0.99628,-0.99628 0.55023,0 0.99628,0.44605 0.99628,0.99628 z" /><g
             id="g92" /><path
             id="path94"
             style="fill:#000000;fill-opacity:1;fill-rule:nonzero;stroke:none"
             d="m -16.1881,9.92137 c 0,0.55023 -0.44604,0.99628 -0.99627,0.99628 -0.55023,0 -0.99628,-0.44605 -0.99628,-0.99628 0,-0.55025 0.44605,-0.99627 0.99628,-0.99627 0.55023,0 0.99627,0.44602 0.99627,0.99627 z" /><g
             id="g96" /><path
             id="path98"
             style="fill:#000000;fill-opacity:1;fill-rule:nonzero;stroke:none"
             d="m -16.1881,-9.92137 c 0,0.55025 -0.44604,0.99627 -0.99627,0.99627 -0.55023,0 -0.99628,-0.44602 -0.99628,-0.99627 0,-0.55023 0.44605,-0.99628 0.99628,-0.99628 0.55023,0 0.99627,0.44605 0.99627,0.99628 z" /><g
             id="g100" /><path
             id="path102"
             style="fill:#000000;fill-opacity:1;fill-rule:nonzero;stroke:none"
             d="m 0.99628,-19.84276 c 0,0.55023 -0.44605,0.99628 -0.99628,0.99628 -0.55023,0 -0.99628,-0.44605 -0.99628,-0.99628 0,-0.55023 0.44605,-0.99628 0.99628,-0.99628 0.55023,0 0.99628,0.44605 0.99628,0.99628 z" /><g
             id="g104" /><path
             id="path106"
             style="fill:#000000;fill-opacity:1;fill-rule:nonzero;stroke:none"
             d="m 18.18065,-9.92137 c 0,0.55025 -0.44605,0.99627 -0.99628,0.99627 -0.55023,0 -0.99627,-0.44602 -0.99627,-0.99627 0,-0.55023 0.44604,-0.99628 0.99627,-0.99628 0.55023,0 0.99628,0.44605 0.99628,0.99628 z" /><g
             id="g108" /><path
             id="path110"
             style="fill:#000000;fill-opacity:1;fill-rule:nonzero;stroke:none"
             d="m 18.18065,9.92137 c 0,0.55023 -0.44605,0.99628 -0.99628,0.99628 -0.55023,0 -0.99627,-0.44605 -0.99627,-0.99628 0,-0.55025 0.44604,-0.99627 0.99627,-0.99627 0.55023,0 0.99628,0.44602 0.99628,0.99627 z" /><g
             id="g112"><path
               id="path114"
               style="fill:none;stroke:#000000;stroke-width:0.3985;stroke-linecap:butt;stroke-linejoin:miter;stroke-miterlimit:10;stroke-dasharray:none;stroke-opacity:0.3"
               d="M 17.18437,9.92137 0,19.84276 -17.18437,9.92137 V -9.92137 L 0,-19.84276 17.18437,-9.92137 Z" /></g><g
             id="g116" /><path
             id="path118"
             style="fill:#000000;fill-opacity:1;fill-rule:nonzero;stroke:none"
             d="m 0.99628,29.76414 c 0,0.55024 -0.44605,0.99628 -0.99628,0.99628 -0.55023,0 -0.99628,-0.44604 -0.99628,-0.99628 0,-0.55023 0.44605,-0.99627 0.99628,-0.99627 0.55023,0 0.99628,0.44604 0.99628,0.99627 z" /><g
             id="g120" /><path
             id="path122"
             style="fill:#000000;fill-opacity:1;fill-rule:nonzero;stroke:none"
             d="m -24.7803,14.88206 c 0,0.55024 -0.44603,0.99628 -0.99628,0.99628 -0.55023,0 -0.99628,-0.44604 -0.99628,-0.99628 0,-0.55024 0.44605,-0.99627 0.99628,-0.99627 0.55025,0 0.99628,0.44603 0.99628,0.99627 z" /><g
             id="g124" /><path
             id="path126"
             style="fill:#000000;fill-opacity:1;fill-rule:nonzero;stroke:none"
             d="m -24.7803,-14.88206 c 0,0.55024 -0.44603,0.99627 -0.99628,0.99627 -0.55023,0 -0.99628,-0.44603 -0.99628,-0.99627 0,-0.55024 0.44605,-0.99628 0.99628,-0.99628 0.55025,0 0.99628,0.44604 0.99628,0.99628 z" /><g
             id="g128" /><path
             id="path130"
             style="fill:#000000;fill-opacity:1;fill-rule:nonzero;stroke:none"
             d="m 0.99628,-29.76414 c 0,0.55023 -0.44605,0.99627 -0.99628,0.99627 -0.55023,0 -0.99628,-0.44604 -0.99628,-0.99627 0,-0.55024 0.44605,-0.99628 0.99628,-0.99628 0.55023,0 0.99628,0.44604 0.99628,0.99628 z" /><g
             id="g132" /><path
             id="path134"
             style="fill:#000000;fill-opacity:1;fill-rule:nonzero;stroke:none"
             d="m 26.77286,-14.88206 c 0,0.55024 -0.44605,0.99627 -0.99628,0.99627 -0.55025,0 -0.99628,-0.44603 -0.99628,-0.99627 0,-0.55024 0.44603,-0.99628 0.99628,-0.99628 0.55023,0 0.99628,0.44604 0.99628,0.99628 z" /><g
             id="g136" /><path
             id="path138"
             style="fill:#000000;fill-opacity:1;fill-rule:nonzero;stroke:none"
             d="m 26.77286,14.88206 c 0,0.55024 -0.44605,0.99628 -0.99628,0.99628 -0.55025,0 -0.99628,-0.44604 -0.99628,-0.99628 0,-0.55024 0.44603,-0.99627 0.99628,-0.99627 0.55023,0 0.99628,0.44603 0.99628,0.99627 z" /><g
             id="g140"><path
               id="path142"
               style="fill:none;stroke:#000000;stroke-width:0.3985;stroke-linecap:butt;stroke-linejoin:miter;stroke-miterlimit:10;stroke-dasharray:none;stroke-opacity:0.3"
               d="M 25.77658,14.88206 0,29.76414 -25.77658,14.88206 V -14.88206 L 0,-29.76414 25.77658,-14.88206 Z" /></g><g
             id="g144" /><path
             id="path146"
             style="fill:#000000;fill-opacity:1;fill-rule:nonzero;stroke:none"
             d="m 0.99628,39.68553 c 0,0.55023 -0.44605,0.99628 -0.99628,0.99628 -0.55023,0 -0.99628,-0.44605 -0.99628,-0.99628 0,-0.55023 0.44605,-0.99628 0.99628,-0.99628 0.55023,0 0.99628,0.44605 0.99628,0.99628 z" /><g
             id="g148" /><path
             id="path150"
             style="fill:#000000;fill-opacity:1;fill-rule:nonzero;stroke:none"
             d="m -33.37248,19.84276 c 0,0.55023 -0.44605,0.99628 -0.99628,0.99628 -0.55023,0 -0.99628,-0.44605 -0.99628,-0.99628 0,-0.55023 0.44605,-0.99628 0.99628,-0.99628 0.55023,0 0.99628,0.44605 0.99628,0.99628 z" /><g
             id="g152" /><path
             id="path154"
             style="fill:#000000;fill-opacity:1;fill-rule:nonzero;stroke:none"
             d="m -33.37248,-19.84276 c 0,0.55023 -0.44605,0.99628 -0.99628,0.99628 -0.55023,0 -0.99628,-0.44605 -0.99628,-0.99628 0,-0.55023 0.44605,-0.99628 0.99628,-0.99628 0.55023,0 0.99628,0.44605 0.99628,0.99628 z" /><g
             id="g156" /><path
             id="path158"
             style="fill:#000000;fill-opacity:1;fill-rule:nonzero;stroke:none"
             d="m 0.99628,-39.68553 c 0,0.55023 -0.44605,0.99628 -0.99628,0.99628 -0.55023,0 -0.99628,-0.44605 -0.99628,-0.99628 0,-0.55023 0.44605,-0.99628 0.99628,-0.99628 0.55023,0 0.99628,0.44605 0.99628,0.99628 z" /><g
             id="g160" /><path
             id="path162"
             style="fill:#000000;fill-opacity:1;fill-rule:nonzero;stroke:none"
             d="m 35.36504,-19.84276 c 0,0.55023 -0.44605,0.99628 -0.99628,0.99628 -0.55023,0 -0.99628,-0.44605 -0.99628,-0.99628 0,-0.55023 0.44605,-0.99628 0.99628,-0.99628 0.55023,0 0.99628,0.44605 0.99628,0.99628 z" /><g
             id="g164" /><path
             id="path166"
             style="fill:#000000;fill-opacity:1;fill-rule:nonzero;stroke:none"
             d="m 35.36504,19.84276 c 0,0.55023 -0.44605,0.99628 -0.99628,0.99628 -0.55023,0 -0.99628,-0.44605 -0.99628,-0.99628 0,-0.55023 0.44605,-0.99628 0.99628,-0.99628 0.55023,0 0.99628,0.44605 0.99628,0.99628 z" /><g
             id="g168"><path
               id="path170"
               style="fill:none;stroke:#000000;stroke-width:0.3985;stroke-linecap:butt;stroke-linejoin:miter;stroke-miterlimit:10;stroke-dasharray:none;stroke-opacity:0.3"
               d="M 34.36876,19.84276 0,39.68553 -34.36876,19.84276 V -19.84276 L 0,-39.68553 34.36876,-19.84276 Z" /></g><g
             id="g172" /><path
             id="path174"
             style="fill:#000000;fill-opacity:1;fill-rule:nonzero;stroke:none"
             d="m 0.99628,49.60692 c 0,0.55023 -0.44605,0.99628 -0.99628,0.99628 -0.55023,0 -0.99628,-0.44605 -0.99628,-0.99628 0,-0.55023 0.44605,-0.99628 0.99628,-0.99628 0.55023,0 0.99628,0.44605 0.99628,0.99628 z" /><g
             id="g176" /><path
             id="path178"
             style="fill:#000000;fill-opacity:1;fill-rule:nonzero;stroke:none"
             d="m -41.96469,24.80345 c 0,0.55023 -0.44605,0.99628 -0.99628,0.99628 -0.55023,0 -0.99627,-0.44605 -0.99627,-0.99628 0,-0.55023 0.44604,-0.99628 0.99627,-0.99628 0.55023,0 0.99628,0.44605 0.99628,0.99628 z" /><g
             id="g180" /><path
             id="path182"
             style="fill:#000000;fill-opacity:1;fill-rule:nonzero;stroke:none"
             d="m -41.96469,-24.80345 c 0,0.55023 -0.44605,0.99628 -0.99628,0.99628 -0.55023,0 -0.99627,-0.44605 -0.99627,-0.99628 0,-0.55023 0.44604,-0.99628 0.99627,-0.99628 0.55023,0 0.99628,0.44605 0.99628,0.99628 z" /><g
             id="g184" /><path
             id="path186"
             style="fill:#000000;fill-opacity:1;fill-rule:nonzero;stroke:none"
             d="m 0.99628,-49.60692 c 0,0.55023 -0.44605,0.99628 -0.99628,0.99628 -0.55023,0 -0.99628,-0.44605 -0.99628,-0.99628 0,-0.55023 0.44605,-0.99628 0.99628,-0.99628 0.55023,0 0.99628,0.44605 0.99628,0.99628 z" /><g
             id="g188" /><path
             id="path190"
             style="fill:#000000;fill-opacity:1;fill-rule:nonzero;stroke:none"
             d="m 43.95724,-24.80345 c 0,0.55023 -0.44604,0.99628 -0.99627,0.99628 -0.55023,0 -0.99628,-0.44605 -0.99628,-0.99628 0,-0.55023 0.44605,-0.99628 0.99628,-0.99628 0.55023,0 0.99627,0.44605 0.99627,0.99628 z" /><g
             id="g192" /><path
             id="path194"
             style="fill:#000000;fill-opacity:1;fill-rule:nonzero;stroke:none"
             d="m 43.95724,24.80345 c 0,0.55023 -0.44604,0.99628 -0.99627,0.99628 -0.55023,0 -0.99628,-0.44605 -0.99628,-0.99628 0,-0.55023 0.44605,-0.99628 0.99628,-0.99628 0.55023,0 0.99627,0.44605 0.99627,0.99628 z" /><g
             id="g196"><path
               id="path198"
               style="fill:none;stroke:#000000;stroke-width:0.3985;stroke-linecap:butt;stroke-linejoin:miter;stroke-miterlimit:10;stroke-dasharray:none;stroke-opacity:0.3"
               d="M 42.96097,24.80345 0,49.60692 -42.96097,24.80345 v -49.6069 L 0,-49.60692 42.96097,-24.80345 Z" /></g><g
             id="g200" /><path
             id="path202"
             style="fill:#000000;fill-opacity:1;fill-rule:nonzero;stroke:none"
             d="m 0.99628,59.5283 c 0,0.55025 -0.44605,0.99628 -0.99628,0.99628 -0.55023,0 -0.99628,-0.44603 -0.99628,-0.99628 0,-0.55023 0.44605,-0.99627 0.99628,-0.99627 0.55023,0 0.99628,0.44604 0.99628,0.99627 z" /><g
             id="g204" /><path
             id="path206"
             style="fill:#000000;fill-opacity:1;fill-rule:nonzero;stroke:none"
             d="m -50.5569,29.76414 c 0,0.55024 -0.44603,0.99628 -0.99628,0.99628 -0.55023,0 -0.99627,-0.44604 -0.99627,-0.99628 0,-0.55023 0.44604,-0.99627 0.99627,-0.99627 0.55025,0 0.99628,0.44604 0.99628,0.99627 z" /><g
             id="g208" /><path
             id="path210"
             style="fill:#000000;fill-opacity:1;fill-rule:nonzero;stroke:none"
             d="m -50.5569,-29.76414 c 0,0.55023 -0.44603,0.99627 -0.99628,0.99627 -0.55023,0 -0.99627,-0.44604 -0.99627,-0.99627 0,-0.55024 0.44604,-0.99628 0.99627,-0.99628 0.55025,0 0.99628,0.44604 0.99628,0.99628 z" /><g
             id="g212" /><path
             id="path214"
             style="fill:#000000;fill-opacity:1;fill-rule:nonzero;stroke:none"
             d="m 0.99628,-59.5283 c 0,0.55023 -0.44605,0.99627 -0.99628,0.99627 -0.55023,0 -0.99628,-0.44604 -0.99628,-0.99627 0,-0.55025 0.44605,-0.99628 0.99628,-0.99628 0.55023,0 0.99628,0.44603 0.99628,0.99628 z" /><g
             id="g216" /><path
             id="path218"
             style="fill:#000000;fill-opacity:1;fill-rule:nonzero;stroke:none"
             d="m 52.54945,-29.76414 c 0,0.55023 -0.44604,0.99627 -0.99627,0.99627 -0.55025,0 -0.99628,-0.44604 -0.99628,-0.99627 0,-0.55024 0.44603,-0.99628 0.99628,-0.99628 0.55023,0 0.99627,0.44604 0.99627,0.99628 z" /><g
             id="g220" /><path
             id="path222"
             style="fill:#000000;fill-opacity:1;fill-rule:nonzero;stroke:none"
             d="m 52.54945,29.76414 c 0,0.55024 -0.44604,0.99628 -0.99627,0.99628 -0.55025,0 -0.99628,-0.44604 -0.99628,-0.99628 0,-0.55023 0.44603,-0.99627 0.99628,-0.99627 0.55023,0 0.99627,0.44604 0.99627,0.99627 z" /><g
             id="g224"><path
               id="path226"
               style="fill:none;stroke:#000000;stroke-width:0.3985;stroke-linecap:butt;stroke-linejoin:miter;stroke-miterlimit:10;stroke-dasharray:none;stroke-opacity:0.3"
               d="M 51.55318,29.76414 0,59.5283 -51.55318,29.76414 V -29.76414 L 0,-59.5283 51.55318,-29.76414 Z" /></g><g
             id="g228" /><path
             id="path230"
             style="fill:#000000;fill-opacity:1;fill-rule:nonzero;stroke:none"
             d="m 0.99628,69.44969 c 0,0.55025 -0.44605,0.99628 -0.99628,0.99628 -0.55023,0 -0.99628,-0.44603 -0.99628,-0.99628 0,-0.55023 0.44605,-0.99628 0.99628,-0.99628 0.55023,0 0.99628,0.44605 0.99628,0.99628 z" /><g
             id="g232" /><path
             id="path234"
             style="fill:#000000;fill-opacity:1;fill-rule:nonzero;stroke:none"
             d="m -59.14908,34.72484 c 0,0.55023 -0.44604,0.99628 -0.99628,0.99628 -0.55023,0 -0.99627,-0.44605 -0.99627,-0.99628 0,-0.55024 0.44604,-0.99628 0.99627,-0.99628 0.55024,0 0.99628,0.44604 0.99628,0.99628 z" /><g
             id="g236" /><path
             id="path238"
             style="fill:#000000;fill-opacity:1;fill-rule:nonzero;stroke:none"
             d="m -59.14908,-34.72484 c 0,0.55024 -0.44604,0.99628 -0.99628,0.99628 -0.55023,0 -0.99627,-0.44604 -0.99627,-0.99628 0,-0.55023 0.44604,-0.99628 0.99627,-0.99628 0.55024,0 0.99628,0.44605 0.99628,0.99628 z" /><g
             id="g240" /><path
             id="path242"
             style="fill:#000000;fill-opacity:1;fill-rule:nonzero;stroke:none"
             d="m 0.99628,-69.44969 c 0,0.55023 -0.44605,0.99628 -0.99628,0.99628 -0.55023,0 -0.99628,-0.44605 -0.99628,-0.99628 0,-0.55025 0.44605,-0.99628 0.99628,-0.99628 0.55023,0 0.99628,0.44603 0.99628,0.99628 z" /><g
             id="g244" /><path
             id="path246"
             style="fill:#000000;fill-opacity:1;fill-rule:nonzero;stroke:none"
             d="m 61.14163,-34.72484 c 0,0.55024 -0.44604,0.99628 -0.99627,0.99628 -0.55024,0 -0.99628,-0.44604 -0.99628,-0.99628 0,-0.55023 0.44604,-0.99628 0.99628,-0.99628 0.55023,0 0.99627,0.44605 0.99627,0.99628 z" /><g
             id="g248" /><path
             id="path250"
             style="fill:#000000;fill-opacity:1;fill-rule:nonzero;stroke:none"
             d="m 61.14163,34.72484 c 0,0.55023 -0.44604,0.99628 -0.99627,0.99628 -0.55024,0 -0.99628,-0.44605 -0.99628,-0.99628 0,-0.55024 0.44604,-0.99628 0.99628,-0.99628 0.55023,0 0.99627,0.44604 0.99627,0.99628 z" /><g
             id="g252"><path
               id="path254"
               style="fill:none;stroke:#000000;stroke-width:0.3985;stroke-linecap:butt;stroke-linejoin:miter;stroke-miterlimit:10;stroke-dasharray:none;stroke-opacity:0.3"
               d="M 60.14536,34.72484 0,69.44969 -60.14536,34.72484 V -34.72484 L 0,-69.44969 60.14536,-34.72484 Z" /></g><g
             id="g256" /><path
             id="path258"
             style="fill:#000000;fill-opacity:1;fill-rule:nonzero;stroke:none"
             d="m 0.99628,79.3711 c 0,0.55023 -0.44605,0.99627 -0.99628,0.99627 -0.55023,0 -0.99628,-0.44604 -0.99628,-0.99627 0,-0.55025 0.44605,-0.99628 0.99628,-0.99628 0.55023,0 0.99628,0.44603 0.99628,0.99628 z" /><g
             id="g260" /><path
             id="path262"
             style="fill:#000000;fill-opacity:1;fill-rule:nonzero;stroke:none"
             d="m -67.74129,39.68553 c 0,0.55023 -0.44604,0.99628 -0.99627,0.99628 -0.55024,0 -0.99628,-0.44605 -0.99628,-0.99628 0,-0.55023 0.44604,-0.99628 0.99628,-0.99628 0.55023,0 0.99627,0.44605 0.99627,0.99628 z" /><g
             id="g264" /><path
             id="path266"
             style="fill:#000000;fill-opacity:1;fill-rule:nonzero;stroke:none"
             d="m -67.74129,-39.68553 c 0,0.55023 -0.44604,0.99628 -0.99627,0.99628 -0.55024,0 -0.99628,-0.44605 -0.99628,-0.99628 0,-0.55023 0.44604,-0.99628 0.99628,-0.99628 0.55023,0 0.99627,0.44605 0.99627,0.99628 z" /><g
             id="g268" /><path
             id="path270"
             style="fill:#000000;fill-opacity:1;fill-rule:nonzero;stroke:none"
             d="m 0.99628,-79.3711 c 0,0.55025 -0.44605,0.99628 -0.99628,0.99628 -0.55023,0 -0.99628,-0.44603 -0.99628,-0.99628 0,-0.55023 0.44605,-0.99627 0.99628,-0.99627 0.55023,0 0.99628,0.44604 0.99628,0.99627 z" /><g
             id="g272" /><path
             id="path274"
             style="fill:#000000;fill-opacity:1;fill-rule:nonzero;stroke:none"
             d="m 69.73384,-39.68553 c 0,0.55023 -0.44604,0.99628 -0.99628,0.99628 -0.55023,0 -0.99627,-0.44605 -0.99627,-0.99628 0,-0.55023 0.44604,-0.99628 0.99627,-0.99628 0.55024,0 0.99628,0.44605 0.99628,0.99628 z" /><g
             id="g276" /><path
             id="path278"
             style="fill:#000000;fill-opacity:1;fill-rule:nonzero;stroke:none"
             d="m 69.73384,39.68553 c 0,0.55023 -0.44604,0.99628 -0.99628,0.99628 -0.55023,0 -0.99627,-0.44605 -0.99627,-0.99628 0,-0.55023 0.44604,-0.99628 0.99627,-0.99628 0.55024,0 0.99628,0.44605 0.99628,0.99628 z" /><g
             id="g280"><path
               id="path282"
               style="fill:none;stroke:#000000;stroke-width:0.3985;stroke-linecap:butt;stroke-linejoin:miter;stroke-miterlimit:10;stroke-dasharray:none;stroke-opacity:0.3"
               d="M 68.73756,39.68553 0,79.3711 -68.73756,39.68553 V -39.68553 L 0,-79.3711 68.73756,-39.68553 Z" /></g><g
             id="g284" /><path
             id="path286"
             style="fill:#000000;fill-opacity:1;fill-rule:nonzero;stroke:none"
             d="m 0.99628,89.29248 c 0,0.55023 -0.44605,0.99628 -0.99628,0.99628 -0.55023,0 -0.99628,-0.44605 -0.99628,-0.99628 0,-0.55025 0.44605,-0.99628 0.99628,-0.99628 0.55023,0 0.99628,0.44603 0.99628,0.99628 z" /><g
             id="g288" /><path
             id="path290"
             style="fill:#000000;fill-opacity:1;fill-rule:nonzero;stroke:none"
             d="m -76.3335,44.64622 c 0,0.55024 -0.44603,0.99628 -0.99627,0.99628 -0.55023,0 -0.99628,-0.44604 -0.99628,-0.99628 0,-0.55022 0.44605,-0.99627 0.99628,-0.99627 0.55024,0 0.99627,0.44605 0.99627,0.99627 z" /><g
             id="g292" /><path
             id="path294"
             style="fill:#000000;fill-opacity:1;fill-rule:nonzero;stroke:none"
             d="m -76.3335,-44.64622 c 0,0.55022 -0.44603,0.99627 -0.99627,0.99627 -0.55023,0 -0.99628,-0.44605 -0.99628,-0.99627 0,-0.55024 0.44605,-0.99628 0.99628,-0.99628 0.55024,0 0.99627,0.44604 0.99627,0.99628 z" /><g
             id="g296" /><path
             id="path298"
             style="fill:#000000;fill-opacity:1;fill-rule:nonzero;stroke:none"
             d="m 0.99628,-89.29248 c 0,0.55025 -0.44605,0.99628 -0.99628,0.99628 -0.55023,0 -0.99628,-0.44603 -0.99628,-0.99628 0,-0.55023 0.44605,-0.99628 0.99628,-0.99628 0.55023,0 0.99628,0.44605 0.99628,0.99628 z" /><g
             id="g300" /><path
             id="path302"
             style="fill:#000000;fill-opacity:1;fill-rule:nonzero;stroke:none"
             d="m 78.32605,-44.64622 c 0,0.55022 -0.44605,0.99627 -0.99628,0.99627 -0.55024,0 -0.99627,-0.44605 -0.99627,-0.99627 0,-0.55024 0.44603,-0.99628 0.99627,-0.99628 0.55023,0 0.99628,0.44604 0.99628,0.99628 z" /><g
             id="g304" /><path
             id="path306"
             style="fill:#000000;fill-opacity:1;fill-rule:nonzero;stroke:none"
             d="m 78.32605,44.64622 c 0,0.55024 -0.44605,0.99628 -0.99628,0.99628 -0.55024,0 -0.99627,-0.44604 -0.99627,-0.99628 0,-0.55022 0.44603,-0.99627 0.99627,-0.99627 0.55023,0 0.99628,0.44605 0.99628,0.99627 z" /><g
             id="g308"><path
               id="path310"
               style="fill:none;stroke:#000000;stroke-width:0.3985;stroke-linecap:butt;stroke-linejoin:miter;stroke-miterlimit:10;stroke-dasharray:none;stroke-opacity:0.3"
               d="M 77.32977,44.64622 0,89.29248 -77.32977,44.64622 V -44.64622 L 0,-89.29248 77.32977,-44.64622 Z" /></g><g
             id="g312" /><path
             id="path314"
             style="fill:#000000;fill-opacity:1;fill-rule:nonzero;stroke:none"
             d="m 0.99628,99.21387 c 0,0.55023 -0.44605,0.99627 -0.99628,0.99627 -0.55023,0 -0.99628,-0.44604 -0.99628,-0.99627 0,-0.55023 0.44605,-0.99628 0.99628,-0.99628 0.55023,0 0.99628,0.44605 0.99628,0.99628 z" /><g
             id="g316" /><path
             id="path318"
             style="fill:#000000;fill-opacity:1;fill-rule:nonzero;stroke:none"
             d="m -84.92567,49.60692 c 0,0.55023 -0.44605,0.99628 -0.99628,0.99628 -0.55023,0 -0.99628,-0.44605 -0.99628,-0.99628 0,-0.55023 0.44605,-0.99628 0.99628,-0.99628 0.55023,0 0.99628,0.44605 0.99628,0.99628 z" /><g
             id="g320" /><path
             id="path322"
             style="fill:#000000;fill-opacity:1;fill-rule:nonzero;stroke:none"
             d="m -84.92567,-49.60692 c 0,0.55023 -0.44605,0.99628 -0.99628,0.99628 -0.55023,0 -0.99628,-0.44605 -0.99628,-0.99628 0,-0.55023 0.44605,-0.99628 0.99628,-0.99628 0.55023,0 0.99628,0.44605 0.99628,0.99628 z" /><g
             id="g324" /><path
             id="path326"
             style="fill:#000000;fill-opacity:1;fill-rule:nonzero;stroke:none"
             d="m 0.99628,-99.21387 c 0,0.55023 -0.44605,0.99628 -0.99628,0.99628 -0.55023,0 -0.99628,-0.44605 -0.99628,-0.99628 0,-0.55023 0.44605,-0.99627 0.99628,-0.99627 0.55023,0 0.99628,0.44604 0.99628,0.99627 z" /><g
             id="g328" /><path
             id="path330"
             style="fill:#000000;fill-opacity:1;fill-rule:nonzero;stroke:none"
             d="m 86.91823,-49.60692 c 0,0.55023 -0.44605,0.99628 -0.99628,0.99628 -0.55023,0 -0.99628,-0.44605 -0.99628,-0.99628 0,-0.55023 0.44605,-0.99628 0.99628,-0.99628 0.55023,0 0.99628,0.44605 0.99628,0.99628 z" /><g
             id="g332" /><path
             id="path334"
             style="fill:#000000;fill-opacity:1;fill-rule:nonzero;stroke:none"
             d="m 86.91823,49.60692 c 0,0.55023 -0.44605,0.99628 -0.99628,0.99628 -0.55023,0 -0.99628,-0.44605 -0.99628,-0.99628 0,-0.55023 0.44605,-0.99628 0.99628,-0.99628 0.55023,0 0.99628,0.44605 0.99628,0.99628 z" /><g
             id="g336"><path
               id="path338"
               style="fill:none;stroke:#000000;stroke-width:0.3985;stroke-linecap:butt;stroke-linejoin:miter;stroke-miterlimit:10;stroke-dasharray:none;stroke-opacity:0.3"
               d="M 85.92195,49.60692 0,99.21387 -85.92195,49.60692 V -49.60692 L 0,-99.21387 85.92195,-49.60692 Z" /></g><g
             id="g340"><g
               transform="translate(-19.815,115.287)"
               id="g342"><g
                 id="g344"><g
                   transform="translate(-133.751,-252.769)"
                   id="g346"><text
                     id="text352"
                     style="font-variant:normal;font-weight:normal;font-size:9.96259975px;font-family:CMR10;-inkscape-font-specification:CMR10;writing-mode:lr-tb;fill:#000000;fill-opacity:1;fill-rule:nonzero;stroke:none"
                     transform="matrix(1,0,0,-1,139.244,264.724)"><tspan
                       id="tspan348"
                       y="0"
                       x="0 7.0565095 12.316762 17.851982 20.619593 23.387203">Bodily</tspan><tspan
                       id="tspan350"
                       y="11.955"
                       x="-5.493 -2.4484293 3.086791 8.6220121 13.049391 16.923847 19.691456 24.672756 30.207977">functions</tspan></text>
<g
                     transform="translate(133.751,252.769)"
                     id="g354" /></g></g><g
                 transform="translate(19.815,-115.287)"
                 id="g356" /></g></g><g
             id="g358"><g
               transform="translate(-150.245,53.893)"
               id="g360"><g
                 id="g362"><g
                   transform="translate(-3.321,-191.375)"
                   id="g364"><text
                     id="text370"
                     style="font-variant:normal;font-weight:normal;font-size:9.96259975px;font-family:CMR10;-inkscape-font-specification:CMR10;writing-mode:lr-tb;fill:#000000;fill-opacity:1;fill-rule:nonzero;stroke:none"
                     transform="matrix(1,0,0,-1,3.321,203.331)"><tspan
                       id="tspan366"
                       y="0"
                       x="0 9.1327152 13.560095 18.816362 22.690817 27.672117 33.757275 36.801846 42.337067 47.872284 52.299664 56.174122 58.94173 63.923031 69.458252 76.715012">Mentalfunctions&amp;</tspan><tspan
                       id="tspan368"
                       y="11.956"
                       x="17.42 23.234173 27.661552 31.563904 35.991283 40.418663 45.953884 49.828339 52.595947 57.577248 63.112469">perceptions</tspan></text>
<g
                     transform="translate(3.321,191.375)"
                     id="g372" /></g></g><g
                 transform="translate(150.245,-53.893)"
                 id="g374" /></g></g><g
             id="g376"><g
               transform="translate(-129.905,-71.799)"
               id="g378"><g
                 id="g380"><g
                   transform="translate(-23.661,-65.683)"
                   id="g382"><text
                     id="text388"
                     style="font-variant:normal;font-weight:normal;font-size:9.96259975px;font-family:CMR10;-inkscape-font-specification:CMR10;writing-mode:lr-tb;fill:#000000;fill-opacity:1;fill-rule:nonzero;stroke:none"
                     transform="matrix(1,0,0,-1,26.719,77.638)"><tspan
                       id="tspan384"
                       y="0"
                       x="0 5.5352206 11.070441 13.838052 17.740402 20.508013 24.382467 29.917688 34.898987">Spiritual</tspan><tspan
                       id="tspan386"
                       y="11.955"
                       x="-3.0580001 2.4772205 5.2448306 13.546665 17.974045 23.509266 27.438515 30.206125 35.187424">dimension</tspan></text>
<g
                     transform="translate(23.661,65.683)"
                     id="g390" /></g></g><g
                 transform="translate(129.905,71.799)"
                 id="g392" /></g></g><g
             id="g394"><g
               transform="translate(-16.328,-134.161)"
               id="g396"><g
                 id="g398"><g
                   transform="translate(-137.238,-3.321)"
                   id="g400"><text
                     id="text406"
                     style="font-variant:normal;font-weight:normal;font-size:9.96259975px;font-family:CMR10;-inkscape-font-specification:CMR10;writing-mode:lr-tb;fill:#000000;fill-opacity:1;fill-rule:nonzero;stroke:none"
                     transform="matrix(1,0,0,-1,137.238,15.276)"><tspan
                       id="tspan402"
                       y="0"
                       x="0 7.7489104 13.284131 18.26543 21.033041 23.800652 27.396154">Quality</tspan><tspan
                       id="tspan404"
                       y="11.955"
                       x="4.151 9.1323004 15.494416 18.262026 21.029636 24.074207">oflife</tspan></text>
<g
                     transform="translate(137.238,3.321)"
                     id="g408" /></g></g><g
                 transform="translate(16.328,134.161)"
                 id="g410" /></g></g><g
             id="g412"><g
               transform="translate(70.931,-70.831)"
               id="g414"><g
                 id="g416"><g
                   transform="translate(-224.497,-66.651)"
                   id="g418"><text
                     id="text424"
                     style="font-variant:normal;font-weight:normal;font-size:9.96259975px;font-family:CMR10;-inkscape-font-specification:CMR10;writing-mode:lr-tb;fill:#000000;fill-opacity:1;fill-rule:nonzero;stroke:none"
                     transform="matrix(1,0,0,-1,224.497,78.606)"><tspan
                       id="tspan420"
                       y="0"
                       x="0 5.5352206 10.795473 15.222853 17.990463 22.971764 29.056919 40.123375 45.658596 50.91885 55.34623 58.113838 62.541218 66.415672 71.396973">Social&amp;Societal</tspan><tspan
                       id="tspan422"
                       y="11.955"
                       x="9.1190004 14.654221 19.635521 23.53787 27.412327 30.179935 34.607315 37.374928 42.910145 47.891445 51.765903 54.533512 59.514812">participation</tspan></text>
<g
                     transform="translate(224.497,66.651)"
                     id="g426" /></g></g><g
                 transform="translate(-70.931,70.831)"
                 id="g428" /></g></g><g
             id="g430"><g
               transform="translate(83.523,53.893)"
               id="g432"><g
                 id="g434"><g
                   transform="translate(-237.089,-191.375)"
                   id="g436"><text
                     id="text442"
                     style="font-variant:normal;font-weight:normal;font-size:9.96259975px;font-family:CMR10;-inkscape-font-specification:CMR10;writing-mode:lr-tb;fill:#000000;fill-opacity:1;fill-rule:nonzero;stroke:none"
                     transform="matrix(1,0,0,-1,249.888,203.331)"><tspan
                       id="tspan438"
                       y="0"
                       x="0 7.6104302 12.59173 15.359341 18.126951">Daily</tspan><tspan
                       id="tspan440"
                       y="11.956"
                       x="-12.799 -9.7544298 -4.2192087 1.3160117 5.743391 9.6178465 12.385456 17.366756 22.901978 25.669588 31.204807">functioning</tspan></text>
<g
                     transform="translate(237.089,191.375)"
                     id="g444" /></g></g><g
                 transform="translate(-83.523,-53.893)"
                 id="g446" /></g></g></g></g></g></g></svg>