<?xml version="1.0" encoding="UTF-8" standalone="no"?>
<svg
   xmlns:dc="http://purl.org/dc/elements/1.1/"
   xmlns:cc="http://creativecommons.org/ns#"
   xmlns:rdf="http://www.w3.org/1999/02/22-rdf-syntax-ns#"
   xmlns:svg="http://www.w3.org/2000/svg"
   xmlns="http://www.w3.org/2000/svg"
   viewBox="0 0 394.71732 364.36667"
   height="364.36667"
   width="394.71732"
   xml:space="preserve"
   id="svg2"
   version="1.1"><metadata
     id="metadata8"><rdf:RDF><cc:Work
         rdf:about=""><dc:format>image/svg+xml</dc:format><dc:type
           rdf:resource="http://purl.org/dc/dcmitype/StillImage" /></cc:Work></rdf:RDF></metadata><defs
     id="defs6" /><g
     transform="matrix(1.3333333,0,0,-1.3333333,0,364.36667)"
     id="g10"><g
       transform="translate(150.399,136.638)"
       id="g12"><g
         id="g14"><g
           id="g16"><g
             id="g18" /><path
             id="path20"
             style="fill:none;stroke:#000000;stroke-width:0.3985;stroke-linecap:butt;stroke-linejoin:miter;stroke-miterlimit:10;stroke-dasharray:none;stroke-opacity:1"
             d="M 0,0 V 99.21387" /><path
             id="path22"
             style="fill:none;stroke:#000000;stroke-width:0.3985;stroke-linecap:butt;stroke-linejoin:miter;stroke-miterlimit:10;stroke-dasharray:none;stroke-opacity:1"
             d="M 0,0 -85.92195,49.60692" /><path
             id="path24"
             style="fill:none;stroke:#000000;stroke-width:0.3985;stroke-linecap:butt;stroke-linejoin:miter;stroke-miterlimit:10;stroke-dasharray:none;stroke-opacity:1"
             d="M 0,0 -85.92195,-49.60692" /><path
             id="path26"
             style="fill:none;stroke:#000000;stroke-width:0.3985;stroke-linecap:butt;stroke-linejoin:miter;stroke-miterlimit:10;stroke-dasharray:none;stroke-opacity:1"
             d="M 0,0 V -99.21387" /><path
             id="path28"
             style="fill:none;stroke:#000000;stroke-width:0.3985;stroke-linecap:butt;stroke-linejoin:miter;stroke-miterlimit:10;stroke-dasharray:none;stroke-opacity:1"
             d="M 0,0 85.92195,-49.60692" /><path
             id="path30"
             style="fill:none;stroke:#000000;stroke-width:0.3985;stroke-linecap:butt;stroke-linejoin:miter;stroke-miterlimit:10;stroke-dasharray:none;stroke-opacity:1"
             d="M 0,0 85.92195,49.60692" /><g
             id="g32" /><path
             id="path34"
             style="fill:#000000;fill-opacity:1;fill-rule:nonzero;stroke:none"
             d="M 0.99628,0 C 0.99628,0.55023 0.55023,0.99628 0,0.99628 -0.55023,0.99628 -0.99628,0.55023 -0.99628,0 c 0,-0.55023 0.44605,-0.99628 0.99628,-0.99628 0.55023,0 0.99628,0.44605 0.99628,0.99628 z" /><g
             id="g36" /><path
             id="path38"
             style="fill:#000000;fill-opacity:1;fill-rule:nonzero;stroke:none"
             d="M 0.99628,0 C 0.99628,0.55023 0.55023,0.99628 0,0.99628 -0.55023,0.99628 -0.99628,0.55023 -0.99628,0 c 0,-0.55023 0.44605,-0.99628 0.99628,-0.99628 0.55023,0 0.99628,0.44605 0.99628,0.99628 z" /><g
             id="g40" /><path
             id="path42"
             style="fill:#000000;fill-opacity:1;fill-rule:nonzero;stroke:none"
             d="M 0.99628,0 C 0.99628,0.55023 0.55023,0.99628 0,0.99628 -0.55023,0.99628 -0.99628,0.55023 -0.99628,0 c 0,-0.55023 0.44605,-0.99628 0.99628,-0.99628 0.55023,0 0.99628,0.44605 0.99628,0.99628 z" /><g
             id="g44" /><path
             id="path46"
             style="fill:#000000;fill-opacity:1;fill-rule:nonzero;stroke:none"
             d="M 0.99628,0 C 0.99628,0.55023 0.55023,0.99628 0,0.99628 -0.55023,0.99628 -0.99628,0.55023 -0.99628,0 c 0,-0.55023 0.44605,-0.99628 0.99628,-0.99628 0.55023,0 0.99628,0.44605 0.99628,0.99628 z" /><g
             id="g48" /><path
             id="path50"
             style="fill:#000000;fill-opacity:1;fill-rule:nonzero;stroke:none"
             d="M 0.99628,0 C 0.99628,0.55023 0.55023,0.99628 0,0.99628 -0.55023,0.99628 -0.99628,0.55023 -0.99628,0 c 0,-0.55023 0.44605,-0.99628 0.99628,-0.99628 0.55023,0 0.99628,0.44605 0.99628,0.99628 z" /><g
             id="g52" /><path
             id="path54"
             style="fill:#000000;fill-opacity:1;fill-rule:nonzero;stroke:none"
             d="M 0.99628,0 C 0.99628,0.55023 0.55023,0.99628 0,0.99628 -0.55023,0.99628 -0.99628,0.55023 -0.99628,0 c 0,-0.55023 0.44605,-0.99628 0.99628,-0.99628 0.55023,0 0.99628,0.44605 0.99628,0.99628 z" /><g
             id="g56"><g
               transform="translate(-3.564,5.614)"
               id="g58"><g
                 id="g60"><g
                   transform="translate(-146.835,-142.252)"
                   id="g62"><text
                     id="text66"
                     style="font-variant:normal;font-weight:normal;font-size:8.96640015px;font-family:CMR9;-inkscape-font-specification:CMR9;writing-mode:lr-tb;fill:#000000;fill-opacity:1;fill-rule:nonzero;stroke:none"
                     transform="matrix(1,0,0,-1,152.19,142.252)"><tspan
                       id="tspan64"
                       y="0"
                       x="0">0</tspan></text>
<g
                     transform="translate(146.835,142.252)"
                     id="g68" /></g></g><g
                 transform="translate(3.564,-5.614)"
                 id="g70" /></g></g><g
             id="g72"><path
               id="path74"
               style="fill:none;stroke:#000000;stroke-width:0.3985;stroke-linecap:butt;stroke-linejoin:miter;stroke-miterlimit:10;stroke-dasharray:none;stroke-opacity:0.3"
               d="M 0,0 V 0 0 0 0 0 Z" /></g><g
             id="g76" /><path
             id="path78"
             style="fill:#000000;fill-opacity:1;fill-rule:nonzero;stroke:none"
             d="m 0.99628,19.84276 c 0,0.55023 -0.44605,0.99628 -0.99628,0.99628 -0.55023,0 -0.99628,-0.44605 -0.99628,-0.99628 0,-0.55023 0.44605,-0.99628 0.99628,-0.99628 0.55023,0 0.99628,0.44605 0.99628,0.99628 z" /><g
             id="g80" /><path
             id="path82"
             style="fill:#000000;fill-opacity:1;fill-rule:nonzero;stroke:none"
             d="m -16.1881,9.92137 c 0,0.55023 -0.44604,0.99628 -0.99627,0.99628 -0.55023,0 -0.99628,-0.44605 -0.99628,-0.99628 0,-0.55025 0.44605,-0.99627 0.99628,-0.99627 0.55023,0 0.99627,0.44602 0.99627,0.99627 z" /><g
             id="g84" /><path
             id="path86"
             style="fill:#000000;fill-opacity:1;fill-rule:nonzero;stroke:none"
             d="m -16.1881,-9.92137 c 0,0.55025 -0.44604,0.99627 -0.99627,0.99627 -0.55023,0 -0.99628,-0.44602 -0.99628,-0.99627 0,-0.55023 0.44605,-0.99628 0.99628,-0.99628 0.55023,0 0.99627,0.44605 0.99627,0.99628 z" /><g
             id="g88" /><path
             id="path90"
             style="fill:#000000;fill-opacity:1;fill-rule:nonzero;stroke:none"
             d="m 0.99628,-19.84276 c 0,0.55023 -0.44605,0.99628 -0.99628,0.99628 -0.55023,0 -0.99628,-0.44605 -0.99628,-0.99628 0,-0.55023 0.44605,-0.99628 0.99628,-0.99628 0.55023,0 0.99628,0.44605 0.99628,0.99628 z" /><g
             id="g92" /><path
             id="path94"
             style="fill:#000000;fill-opacity:1;fill-rule:nonzero;stroke:none"
             d="m 18.18065,-9.92137 c 0,0.55025 -0.44605,0.99627 -0.99628,0.99627 -0.55023,0 -0.99627,-0.44602 -0.99627,-0.99627 0,-0.55023 0.44604,-0.99628 0.99627,-0.99628 0.55023,0 0.99628,0.44605 0.99628,0.99628 z" /><g
             id="g96" /><path
             id="path98"
             style="fill:#000000;fill-opacity:1;fill-rule:nonzero;stroke:none"
             d="m 18.18065,9.92137 c 0,0.55023 -0.44605,0.99628 -0.99628,0.99628 -0.55023,0 -0.99627,-0.44605 -0.99627,-0.99628 0,-0.55025 0.44604,-0.99627 0.99627,-0.99627 0.55023,0 0.99628,0.44602 0.99628,0.99627 z" /><g
             id="g100"><g
               transform="translate(-3.564,25.457)"
               id="g102"><g
                 id="g104"><g
                   transform="translate(-146.835,-162.095)"
                   id="g106"><text
                     id="text110"
                     style="font-variant:normal;font-weight:normal;font-size:8.96640015px;font-family:CMR9;-inkscape-font-specification:CMR9;writing-mode:lr-tb;fill:#000000;fill-opacity:1;fill-rule:nonzero;stroke:none"
                     transform="matrix(1,0,0,-1,152.19,162.095)"><tspan
                       id="tspan108"
                       y="0"
                       x="0">2</tspan></text>
<g
                     transform="translate(146.835,162.095)"
                     id="g112" /></g></g><g
                 transform="translate(3.564,-25.457)"
                 id="g114" /></g></g><g
             id="g116"><path
               id="path118"
               style="fill:none;stroke:#000000;stroke-width:0.3985;stroke-linecap:butt;stroke-linejoin:miter;stroke-miterlimit:10;stroke-dasharray:none;stroke-opacity:0.3"
               d="M 17.18437,9.92137 0,19.84276 -17.18437,9.92137 V -9.92137 L 0,-19.84276 17.18437,-9.92137 Z" /></g><g
             id="g120" /><path
             id="path122"
             style="fill:#000000;fill-opacity:1;fill-rule:nonzero;stroke:none"
             d="m 0.99628,39.68553 c 0,0.55023 -0.44605,0.99628 -0.99628,0.99628 -0.55023,0 -0.99628,-0.44605 -0.99628,-0.99628 0,-0.55023 0.44605,-0.99628 0.99628,-0.99628 0.55023,0 0.99628,0.44605 0.99628,0.99628 z" /><g
             id="g124" /><path
             id="path126"
             style="fill:#000000;fill-opacity:1;fill-rule:nonzero;stroke:none"
             d="m -33.37248,19.84276 c 0,0.55023 -0.44605,0.99628 -0.99628,0.99628 -0.55023,0 -0.99628,-0.44605 -0.99628,-0.99628 0,-0.55023 0.44605,-0.99628 0.99628,-0.99628 0.55023,0 0.99628,0.44605 0.99628,0.99628 z" /><g
             id="g128" /><path
             id="path130"
             style="fill:#000000;fill-opacity:1;fill-rule:nonzero;stroke:none"
             d="m -33.37248,-19.84276 c 0,0.55023 -0.44605,0.99628 -0.99628,0.99628 -0.55023,0 -0.99628,-0.44605 -0.99628,-0.99628 0,-0.55023 0.44605,-0.99628 0.99628,-0.99628 0.55023,0 0.99628,0.44605 0.99628,0.99628 z" /><g
             id="g132" /><path
             id="path134"
             style="fill:#000000;fill-opacity:1;fill-rule:nonzero;stroke:none"
             d="m 0.99628,-39.68553 c 0,0.55023 -0.44605,0.99628 -0.99628,0.99628 -0.55023,0 -0.99628,-0.44605 -0.99628,-0.99628 0,-0.55023 0.44605,-0.99628 0.99628,-0.99628 0.55023,0 0.99628,0.44605 0.99628,0.99628 z" /><g
             id="g136" /><path
             id="path138"
             style="fill:#000000;fill-opacity:1;fill-rule:nonzero;stroke:none"
             d="m 35.36504,-19.84276 c 0,0.55023 -0.44605,0.99628 -0.99628,0.99628 -0.55023,0 -0.99628,-0.44605 -0.99628,-0.99628 0,-0.55023 0.44605,-0.99628 0.99628,-0.99628 0.55023,0 0.99628,0.44605 0.99628,0.99628 z" /><g
             id="g140" /><path
             id="path142"
             style="fill:#000000;fill-opacity:1;fill-rule:nonzero;stroke:none"
             d="m 35.36504,19.84276 c 0,0.55023 -0.44605,0.99628 -0.99628,0.99628 -0.55023,0 -0.99628,-0.44605 -0.99628,-0.99628 0,-0.55023 0.44605,-0.99628 0.99628,-0.99628 0.55023,0 0.99628,0.44605 0.99628,0.99628 z" /><g
             id="g144"><g
               transform="translate(-3.564,45.299)"
               id="g146"><g
                 id="g148"><g
                   transform="translate(-146.835,-181.937)"
                   id="g150"><text
                     id="text154"
                     style="font-variant:normal;font-weight:normal;font-size:8.96640015px;font-family:CMR9;-inkscape-font-specification:CMR9;writing-mode:lr-tb;fill:#000000;fill-opacity:1;fill-rule:nonzero;stroke:none"
                     transform="matrix(1,0,0,-1,152.19,181.937)"><tspan
                       id="tspan152"
                       y="0"
                       x="0">4</tspan></text>
<g
                     transform="translate(146.835,181.937)"
                     id="g156" /></g></g><g
                 transform="translate(3.564,-45.299)"
                 id="g158" /></g></g><g
             id="g160"><path
               id="path162"
               style="fill:none;stroke:#000000;stroke-width:0.3985;stroke-linecap:butt;stroke-linejoin:miter;stroke-miterlimit:10;stroke-dasharray:none;stroke-opacity:0.3"
               d="M 34.36876,19.84276 0,39.68553 -34.36876,19.84276 V -19.84276 L 0,-39.68553 34.36876,-19.84276 Z" /></g><g
             id="g164" /><path
             id="path166"
             style="fill:#000000;fill-opacity:1;fill-rule:nonzero;stroke:none"
             d="m 0.99628,59.5283 c 0,0.55025 -0.44605,0.99628 -0.99628,0.99628 -0.55023,0 -0.99628,-0.44603 -0.99628,-0.99628 0,-0.55023 0.44605,-0.99627 0.99628,-0.99627 0.55023,0 0.99628,0.44604 0.99628,0.99627 z" /><g
             id="g168" /><path
             id="path170"
             style="fill:#000000;fill-opacity:1;fill-rule:nonzero;stroke:none"
             d="m -50.5569,29.76414 c 0,0.55024 -0.44603,0.99628 -0.99628,0.99628 -0.55023,0 -0.99627,-0.44604 -0.99627,-0.99628 0,-0.55023 0.44604,-0.99627 0.99627,-0.99627 0.55025,0 0.99628,0.44604 0.99628,0.99627 z" /><g
             id="g172" /><path
             id="path174"
             style="fill:#000000;fill-opacity:1;fill-rule:nonzero;stroke:none"
             d="m -50.5569,-29.76414 c 0,0.55023 -0.44603,0.99627 -0.99628,0.99627 -0.55023,0 -0.99627,-0.44604 -0.99627,-0.99627 0,-0.55024 0.44604,-0.99628 0.99627,-0.99628 0.55025,0 0.99628,0.44604 0.99628,0.99628 z" /><g
             id="g176" /><path
             id="path178"
             style="fill:#000000;fill-opacity:1;fill-rule:nonzero;stroke:none"
             d="m 0.99628,-59.5283 c 0,0.55023 -0.44605,0.99627 -0.99628,0.99627 -0.55023,0 -0.99628,-0.44604 -0.99628,-0.99627 0,-0.55025 0.44605,-0.99628 0.99628,-0.99628 0.55023,0 0.99628,0.44603 0.99628,0.99628 z" /><g
             id="g180" /><path
             id="path182"
             style="fill:#000000;fill-opacity:1;fill-rule:nonzero;stroke:none"
             d="m 52.54945,-29.76414 c 0,0.55023 -0.44604,0.99627 -0.99627,0.99627 -0.55025,0 -0.99628,-0.44604 -0.99628,-0.99627 0,-0.55024 0.44603,-0.99628 0.99628,-0.99628 0.55023,0 0.99627,0.44604 0.99627,0.99628 z" /><g
             id="g184" /><path
             id="path186"
             style="fill:#000000;fill-opacity:1;fill-rule:nonzero;stroke:none"
             d="m 52.54945,29.76414 c 0,0.55024 -0.44604,0.99628 -0.99627,0.99628 -0.55025,0 -0.99628,-0.44604 -0.99628,-0.99628 0,-0.55023 0.44603,-0.99627 0.99628,-0.99627 0.55023,0 0.99627,0.44604 0.99627,0.99627 z" /><g
             id="g188"><g
               transform="translate(-3.564,65.142)"
               id="g190"><g
                 id="g192"><g
                   transform="translate(-146.835,-201.78)"
                   id="g194"><text
                     id="text198"
                     style="font-variant:normal;font-weight:normal;font-size:8.96640015px;font-family:CMR9;-inkscape-font-specification:CMR9;writing-mode:lr-tb;fill:#000000;fill-opacity:1;fill-rule:nonzero;stroke:none"
                     transform="matrix(1,0,0,-1,152.19,201.78)"><tspan
                       id="tspan196"
                       y="0"
                       x="0">6</tspan></text>
<g
                     transform="translate(146.835,201.78)"
                     id="g200" /></g></g><g
                 transform="translate(3.564,-65.142)"
                 id="g202" /></g></g><g
             id="g204"><path
               id="path206"
               style="fill:none;stroke:#000000;stroke-width:0.3985;stroke-linecap:butt;stroke-linejoin:miter;stroke-miterlimit:10;stroke-dasharray:none;stroke-opacity:0.3"
               d="M 51.55318,29.76414 0,59.5283 -51.55318,29.76414 V -29.76414 L 0,-59.5283 51.55318,-29.76414 Z" /></g><g
             id="g208" /><path
             id="path210"
             style="fill:#000000;fill-opacity:1;fill-rule:nonzero;stroke:none"
             d="m 0.99628,79.3711 c 0,0.55023 -0.44605,0.99627 -0.99628,0.99627 -0.55023,0 -0.99628,-0.44604 -0.99628,-0.99627 0,-0.55025 0.44605,-0.99628 0.99628,-0.99628 0.55023,0 0.99628,0.44603 0.99628,0.99628 z" /><g
             id="g212" /><path
             id="path214"
             style="fill:#000000;fill-opacity:1;fill-rule:nonzero;stroke:none"
             d="m -67.74129,39.68553 c 0,0.55023 -0.44604,0.99628 -0.99627,0.99628 -0.55024,0 -0.99628,-0.44605 -0.99628,-0.99628 0,-0.55023 0.44604,-0.99628 0.99628,-0.99628 0.55023,0 0.99627,0.44605 0.99627,0.99628 z" /><g
             id="g216" /><path
             id="path218"
             style="fill:#000000;fill-opacity:1;fill-rule:nonzero;stroke:none"
             d="m -67.74129,-39.68553 c 0,0.55023 -0.44604,0.99628 -0.99627,0.99628 -0.55024,0 -0.99628,-0.44605 -0.99628,-0.99628 0,-0.55023 0.44604,-0.99628 0.99628,-0.99628 0.55023,0 0.99627,0.44605 0.99627,0.99628 z" /><g
             id="g220" /><path
             id="path222"
             style="fill:#000000;fill-opacity:1;fill-rule:nonzero;stroke:none"
             d="m 0.99628,-79.3711 c 0,0.55025 -0.44605,0.99628 -0.99628,0.99628 -0.55023,0 -0.99628,-0.44603 -0.99628,-0.99628 0,-0.55023 0.44605,-0.99627 0.99628,-0.99627 0.55023,0 0.99628,0.44604 0.99628,0.99627 z" /><g
             id="g224" /><path
             id="path226"
             style="fill:#000000;fill-opacity:1;fill-rule:nonzero;stroke:none"
             d="m 69.73384,-39.68553 c 0,0.55023 -0.44604,0.99628 -0.99628,0.99628 -0.55023,0 -0.99627,-0.44605 -0.99627,-0.99628 0,-0.55023 0.44604,-0.99628 0.99627,-0.99628 0.55024,0 0.99628,0.44605 0.99628,0.99628 z" /><g
             id="g228" /><path
             id="path230"
             style="fill:#000000;fill-opacity:1;fill-rule:nonzero;stroke:none"
             d="m 69.73384,39.68553 c 0,0.55023 -0.44604,0.99628 -0.99628,0.99628 -0.55023,0 -0.99627,-0.44605 -0.99627,-0.99628 0,-0.55023 0.44604,-0.99628 0.99627,-0.99628 0.55024,0 0.99628,0.44605 0.99628,0.99628 z" /><g
             id="g232"><g
               transform="translate(-3.564,84.984)"
               id="g234"><g
                 id="g236"><g
                   transform="translate(-146.835,-221.622)"
                   id="g238"><text
                     id="text242"
                     style="font-variant:normal;font-weight:normal;font-size:8.96640015px;font-family:CMR9;-inkscape-font-specification:CMR9;writing-mode:lr-tb;fill:#000000;fill-opacity:1;fill-rule:nonzero;stroke:none"
                     transform="matrix(1,0,0,-1,152.19,221.622)"><tspan
                       id="tspan240"
                       y="0"
                       x="0">8</tspan></text>
<g
                     transform="translate(146.835,221.622)"
                     id="g244" /></g></g><g
                 transform="translate(3.564,-84.984)"
                 id="g246" /></g></g><g
             id="g248"><path
               id="path250"
               style="fill:none;stroke:#000000;stroke-width:0.3985;stroke-linecap:butt;stroke-linejoin:miter;stroke-miterlimit:10;stroke-dasharray:none;stroke-opacity:0.3"
               d="M 68.73756,39.68553 0,79.3711 -68.73756,39.68553 V -39.68553 L 0,-79.3711 68.73756,-39.68553 Z" /></g><g
             id="g252" /><path
             id="path254"
             style="fill:#000000;fill-opacity:1;fill-rule:nonzero;stroke:none"
             d="m 0.99628,99.21387 c 0,0.55023 -0.44605,0.99627 -0.99628,0.99627 -0.55023,0 -0.99628,-0.44604 -0.99628,-0.99627 0,-0.55023 0.44605,-0.99628 0.99628,-0.99628 0.55023,0 0.99628,0.44605 0.99628,0.99628 z" /><g
             id="g256" /><path
             id="path258"
             style="fill:#000000;fill-opacity:1;fill-rule:nonzero;stroke:none"
             d="m -84.92567,49.60692 c 0,0.55023 -0.44605,0.99628 -0.99628,0.99628 -0.55023,0 -0.99628,-0.44605 -0.99628,-0.99628 0,-0.55023 0.44605,-0.99628 0.99628,-0.99628 0.55023,0 0.99628,0.44605 0.99628,0.99628 z" /><g
             id="g260" /><path
             id="path262"
             style="fill:#000000;fill-opacity:1;fill-rule:nonzero;stroke:none"
             d="m -84.92567,-49.60692 c 0,0.55023 -0.44605,0.99628 -0.99628,0.99628 -0.55023,0 -0.99628,-0.44605 -0.99628,-0.99628 0,-0.55023 0.44605,-0.99628 0.99628,-0.99628 0.55023,0 0.99628,0.44605 0.99628,0.99628 z" /><g
             id="g264" /><path
             id="path266"
             style="fill:#000000;fill-opacity:1;fill-rule:nonzero;stroke:none"
             d="m 0.99628,-99.21387 c 0,0.55023 -0.44605,0.99628 -0.99628,0.99628 -0.55023,0 -0.99628,-0.44605 -0.99628,-0.99628 0,-0.55023 0.44605,-0.99627 0.99628,-0.99627 0.55023,0 0.99628,0.44604 0.99628,0.99627 z" /><g
             id="g268" /><path
             id="path270"
             style="fill:#000000;fill-opacity:1;fill-rule:nonzero;stroke:none"
             d="m 86.91823,-49.60692 c 0,0.55023 -0.44605,0.99628 -0.99628,0.99628 -0.55023,0 -0.99628,-0.44605 -0.99628,-0.99628 0,-0.55023 0.44605,-0.99628 0.99628,-0.99628 0.55023,0 0.99628,0.44605 0.99628,0.99628 z" /><g
             id="g272" /><path
             id="path274"
             style="fill:#000000;fill-opacity:1;fill-rule:nonzero;stroke:none"
             d="m 86.91823,49.60692 c 0,0.55023 -0.44605,0.99628 -0.99628,0.99628 -0.55023,0 -0.99628,-0.44605 -0.99628,-0.99628 0,-0.55023 0.44605,-0.99628 0.99628,-0.99628 0.55023,0 0.99628,0.44605 0.99628,0.99628 z" /><g
             id="g276"><g
               transform="translate(-3.564,104.827)"
               id="g278"><g
                 id="g280"><g
                   transform="translate(-146.835,-241.465)"
                   id="g282"><text
                     id="text286"
                     style="font-variant:normal;font-weight:normal;font-size:8.96640015px;font-family:CMR9;-inkscape-font-specification:CMR9;writing-mode:lr-tb;fill:#000000;fill-opacity:1;fill-rule:nonzero;stroke:none"
                     transform="matrix(1,0,0,-1,147.582,241.465)"><tspan
                       id="tspan284"
                       y="0"
                       x="0 4.6078329">10</tspan></text>
<g
                     transform="translate(146.835,241.465)"
                     id="g288" /></g></g><g
                 transform="translate(3.564,-104.827)"
                 id="g290" /></g></g><g
             id="g292"><path
               id="path294"
               style="fill:none;stroke:#000000;stroke-width:0.3985;stroke-linecap:butt;stroke-linejoin:miter;stroke-miterlimit:10;stroke-dasharray:none;stroke-opacity:0.3"
               d="M 85.92195,49.60692 0,99.21387 -85.92195,49.60692 V -49.60692 L 0,-99.21387 85.92195,-49.60692 Z" /></g><g
             id="g296"><g
               transform="translate(-18.328,116.131)"
               id="g298"><g
                 id="g300"><g
                   transform="translate(-132.071,-252.769)"
                   id="g302"><text
                     id="text308"
                     style="font-variant:normal;font-weight:normal;font-size:8.96640015px;font-family:CMR9;-inkscape-font-specification:CMR9;writing-mode:lr-tb;fill:#000000;fill-opacity:1;fill-rule:nonzero;stroke:none"
                     transform="matrix(1,0,0,-1,137.152,263.728)"><tspan
                       id="tspan304"
                       y="0"
                       x="0 6.5266423 11.394501 16.514315 19.074223 21.63413">Bodily</tspan><tspan
                       id="tspan306"
                       y="10.959"
                       x="-5.0809999 -2.2655504 2.854264 7.9740782 12.06993 15.6538 18.213707 22.821541 27.941355">functions</tspan></text>
<g
                     transform="translate(132.071,252.769)"
                     id="g310" /></g></g><g
                 transform="translate(18.328,-116.131)"
                 id="g312" /></g></g><g
             id="g314"><g
               transform="translate(-147.079,54.641)"
               id="g316"><g
                 id="g318"><g
                   transform="translate(-3.32,-191.279)"
                   id="g320"><text
                     id="text326"
                     style="font-variant:normal;font-weight:normal;font-size:8.96640015px;font-family:CMR9;-inkscape-font-specification:CMR9;writing-mode:lr-tb;fill:#000000;fill-opacity:1;fill-rule:nonzero;stroke:none"
                     transform="matrix(1,0,0,-1,3.32,202.238)"><tspan
                       id="tspan322"
                       y="0"
                       x="0 8.4463491 12.545787 17.405575 20.989447 25.597279 31.23266 34.048111 39.167927 44.287739 48.383591 51.967461 54.527367 59.135201 64.255013 70.965469">Mentalfunctions&amp;</tspan><tspan
                       id="tspan324"
                       y="10.959"
                       x="16.115 21.485874 25.585312 29.189804 33.285656 37.385094 42.50491 46.088779 48.648685 53.256519 58.376331">perceptions</tspan></text>
<g
                     transform="translate(3.32,191.279)"
                     id="g328" /></g></g><g
                 transform="translate(147.079,-54.641)"
                 id="g330" /></g></g><g
             id="g332"><g
               transform="translate(-128.265,-70.955)"
               id="g334"><g
                 id="g336"><g
                   transform="translate(-22.134,-65.683)"
                   id="g338"><text
                     id="text344"
                     style="font-variant:normal;font-weight:normal;font-size:8.96640015px;font-family:CMR9;-inkscape-font-specification:CMR9;writing-mode:lr-tb;fill:#000000;fill-opacity:1;fill-rule:nonzero;stroke:none"
                     transform="matrix(1,0,0,-1,24.967,76.642)"><tspan
                       id="tspan340"
                       y="0"
                       x="0 5.1198144 10.239629 12.799536 16.404028 18.963936 22.547806 27.66762 32.275452">Spiritual</tspan><tspan
                       id="tspan342"
                       y="10.959"
                       x="-2.8329999 2.2868145 4.8467216 12.526443 16.625881 21.745695 25.380674 27.940582 32.548416">dimension</tspan></text>
<g
                     transform="translate(22.134,65.683)"
                     id="g346" /></g></g><g
                 transform="translate(128.265,70.955)"
                 id="g348" /></g></g><g
             id="g350"><g
               transform="translate(-15.103,-133.317)"
               id="g352"><g
                 id="g354"><g
                   transform="translate(-135.296,-3.321)"
                   id="g356"><text
                     id="text362"
                     style="font-variant:normal;font-weight:normal;font-size:8.96640015px;font-family:CMR9;-inkscape-font-specification:CMR9;writing-mode:lr-tb;fill:#000000;fill-opacity:1;fill-rule:nonzero;stroke:none"
                     transform="matrix(1,0,0,-1,135.296,14.279)"><tspan
                       id="tspan358"
                       y="0"
                       x="0 7.1677403 12.287555 16.895388 19.455296 22.015202 25.339046">Quality</tspan><tspan
                       id="tspan360"
                       y="10.958"
                       x="3.8380001 8.4458332 14.336758 16.896666 19.456572 22.272022">oflife</tspan></text>
<g
                     transform="translate(135.296,3.321)"
                     id="g364" /></g></g><g
                 transform="translate(15.103,133.317)"
                 id="g366" /></g></g><g
             id="g368"><g
               transform="translate(73.711,-70.084)"
               id="g370"><g
                 id="g372"><g
                   transform="translate(-224.11,-66.554)"
                   id="g374"><text
                     id="text380"
                     style="font-variant:normal;font-weight:normal;font-size:8.96640015px;font-family:CMR9;-inkscape-font-specification:CMR9;writing-mode:lr-tb;fill:#000000;fill-opacity:1;fill-rule:nonzero;stroke:none"
                     transform="matrix(1,0,0,-1,224.11,77.513)"><tspan
                       id="tspan376"
                       y="0"
                       x="0 5.1198144 9.9876728 14.083525 16.643433 21.251265 26.87768 37.120895 42.240711 47.099602 51.195454 53.75536 57.854801 61.438671 66.046501">Social&amp;Societal</tspan><tspan
                       id="tspan378"
                       y="10.959"
                       x="8.4390001 13.558814 18.166647 21.771141 25.355011 27.914917 32.010769 34.570675 39.690491 44.298325 47.882195 50.442101 55.049934">participation</tspan></text>
<g
                     transform="translate(224.11,66.554)"
                     id="g382" /></g></g><g
                 transform="translate(-73.711,70.084)"
                 id="g384" /></g></g><g
             id="g386"><g
               transform="translate(85.36,54.641)"
               id="g388"><g
                 id="g390"><g
                   transform="translate(-235.759,-191.279)"
                   id="g392"><text
                     id="text398"
                     style="font-variant:normal;font-weight:normal;font-size:8.96640015px;font-family:CMR9;-inkscape-font-specification:CMR9;writing-mode:lr-tb;fill:#000000;fill-opacity:1;fill-rule:nonzero;stroke:none"
                     transform="matrix(1,0,0,-1,247.599,202.238)"><tspan
                       id="tspan394"
                       y="0"
                       x="0 7.0386238 11.646457 14.206365 16.766272">Daily</tspan><tspan
                       id="tspan396"
                       y="10.959"
                       x="-11.84 -9.0245504 -3.904736 1.2150784 5.3109298 8.8948002 11.454707 16.06254 21.182354 23.742262 28.862076">functioning</tspan></text>
<g
                     transform="translate(235.759,191.279)"
                     id="g400" /></g></g><g
                 transform="translate(-85.36,-54.641)"
                 id="g402" /></g></g></g></g></g></g></svg>