<?xml version="1.0" encoding="UTF-8" standalone="no"?>
<svg
   xmlns:dc="http://purl.org/dc/elements/1.1/"
   xmlns:cc="http://creativecommons.org/ns#"
   xmlns:rdf="http://www.w3.org/1999/02/22-rdf-syntax-ns#"
   xmlns:svg="http://www.w3.org/2000/svg"
   xmlns="http://www.w3.org/2000/svg"
   viewBox="0 0 394.74133 317.12134"
   height="317.12134"
   width="394.74133"
   xml:space="preserve"
   id="svg2"
   version="1.1"><metadata
     id="metadata8"><rdf:RDF><cc:Work
         rdf:about=""><dc:format>image/svg+xml</dc:format><dc:type
           rdf:resource="http://purl.org/dc/dcmitype/StillImage" /></cc:Work></rdf:RDF></metadata><defs
     id="defs6" /><g
     transform="matrix(1.3333333,0,0,-1.3333333,0,317.12133)"
     id="g10"><g
       transform="translate(148.566,118.92)"
       id="g12"><g
         id="g14"><g
           id="g16"><g
             id="g18" /><path
             id="path20"
             style="fill:none;stroke:#000000;stroke-width:0.3985;stroke-linecap:butt;stroke-linejoin:miter;stroke-miterlimit:10;stroke-dasharray:none;stroke-opacity:1"
             d="M 0,0 V 99.21387" /><path
             id="path22"
             style="fill:none;stroke:#000000;stroke-width:0.3985;stroke-linecap:butt;stroke-linejoin:miter;stroke-miterlimit:10;stroke-dasharray:none;stroke-opacity:1"
             d="M 0,0 -85.92195,49.60692" /><path
             id="path24"
             style="fill:none;stroke:#000000;stroke-width:0.3985;stroke-linecap:butt;stroke-linejoin:miter;stroke-miterlimit:10;stroke-dasharray:none;stroke-opacity:1"
             d="M 0,0 -85.92195,-49.60692" /><path
             id="path26"
             style="fill:none;stroke:#000000;stroke-width:0.3985;stroke-linecap:butt;stroke-linejoin:miter;stroke-miterlimit:10;stroke-dasharray:none;stroke-opacity:1"
             d="M 0,0 V -99.21387" /><path
             id="path28"
             style="fill:none;stroke:#000000;stroke-width:0.3985;stroke-linecap:butt;stroke-linejoin:miter;stroke-miterlimit:10;stroke-dasharray:none;stroke-opacity:1"
             d="M 0,0 85.92195,-49.60692" /><path
             id="path30"
             style="fill:none;stroke:#000000;stroke-width:0.3985;stroke-linecap:butt;stroke-linejoin:miter;stroke-miterlimit:10;stroke-dasharray:none;stroke-opacity:1"
             d="M 0,0 85.92195,49.60692" /><g
             id="g32" /><path
             id="path34"
             style="fill:#000000;fill-opacity:1;fill-rule:nonzero;stroke:none"
             d="M 0.99628,0 C 0.99628,0.55023 0.55023,0.99628 0,0.99628 -0.55023,0.99628 -0.99628,0.55023 -0.99628,0 c 0,-0.55023 0.44605,-0.99628 0.99628,-0.99628 0.55023,0 0.99628,0.44605 0.99628,0.99628 z" /><g
             id="g36" /><path
             id="path38"
             style="fill:#000000;fill-opacity:1;fill-rule:nonzero;stroke:none"
             d="M 0.99628,0 C 0.99628,0.55023 0.55023,0.99628 0,0.99628 -0.55023,0.99628 -0.99628,0.55023 -0.99628,0 c 0,-0.55023 0.44605,-0.99628 0.99628,-0.99628 0.55023,0 0.99628,0.44605 0.99628,0.99628 z" /><g
             id="g40" /><path
             id="path42"
             style="fill:#000000;fill-opacity:1;fill-rule:nonzero;stroke:none"
             d="M 0.99628,0 C 0.99628,0.55023 0.55023,0.99628 0,0.99628 -0.55023,0.99628 -0.99628,0.55023 -0.99628,0 c 0,-0.55023 0.44605,-0.99628 0.99628,-0.99628 0.55023,0 0.99628,0.44605 0.99628,0.99628 z" /><g
             id="g44" /><path
             id="path46"
             style="fill:#000000;fill-opacity:1;fill-rule:nonzero;stroke:none"
             d="M 0.99628,0 C 0.99628,0.55023 0.55023,0.99628 0,0.99628 -0.55023,0.99628 -0.99628,0.55023 -0.99628,0 c 0,-0.55023 0.44605,-0.99628 0.99628,-0.99628 0.55023,0 0.99628,0.44605 0.99628,0.99628 z" /><g
             id="g48" /><path
             id="path50"
             style="fill:#000000;fill-opacity:1;fill-rule:nonzero;stroke:none"
             d="M 0.99628,0 C 0.99628,0.55023 0.55023,0.99628 0,0.99628 -0.55023,0.99628 -0.99628,0.55023 -0.99628,0 c 0,-0.55023 0.44605,-0.99628 0.99628,-0.99628 0.55023,0 0.99628,0.44605 0.99628,0.99628 z" /><g
             id="g52" /><path
             id="path54"
             style="fill:#000000;fill-opacity:1;fill-rule:nonzero;stroke:none"
             d="M 0.99628,0 C 0.99628,0.55023 0.55023,0.99628 0,0.99628 -0.55023,0.99628 -0.99628,0.55023 -0.99628,0 c 0,-0.55023 0.44605,-0.99628 0.99628,-0.99628 0.55023,0 0.99628,0.44605 0.99628,0.99628 z" /><g
             id="g56"><path
               id="path58"
               style="fill:none;stroke:#000000;stroke-width:0.3985;stroke-linecap:butt;stroke-linejoin:miter;stroke-miterlimit:10;stroke-dasharray:none;stroke-opacity:0.3"
               d="M 0,0 V 0 0 0 0 0 Z" /></g><g
             id="g60" /><path
             id="path62"
             style="fill:#000000;fill-opacity:1;fill-rule:nonzero;stroke:none"
             d="m 0.99628,9.92137 c 0,0.55023 -0.44605,0.99628 -0.99628,0.99628 -0.55023,0 -0.99628,-0.44605 -0.99628,-0.99628 0,-0.55025 0.44605,-0.99627 0.99628,-0.99627 0.55023,0 0.99628,0.44602 0.99628,0.99627 z" /><g
             id="g64" /><path
             id="path66"
             style="fill:#000000;fill-opacity:1;fill-rule:nonzero;stroke:none"
             d="m -7.59589,4.96068 c 0,0.55023 -0.44604,0.99627 -0.99627,0.99627 -0.55024,0 -0.99628,-0.44604 -0.99628,-0.99627 0,-0.55025 0.44604,-0.99628 0.99628,-0.99628 0.55023,0 0.99627,0.44603 0.99627,0.99628 z" /><g
             id="g68" /><path
             id="path70"
             style="fill:#000000;fill-opacity:1;fill-rule:nonzero;stroke:none"
             d="m -7.59589,-4.96068 c 0,0.55025 -0.44604,0.99628 -0.99627,0.99628 -0.55024,0 -0.99628,-0.44603 -0.99628,-0.99628 0,-0.55023 0.44604,-0.99627 0.99628,-0.99627 0.55023,0 0.99627,0.44604 0.99627,0.99627 z" /><g
             id="g72" /><path
             id="path74"
             style="fill:#000000;fill-opacity:1;fill-rule:nonzero;stroke:none"
             d="m 0.99628,-9.92137 c 0,0.55025 -0.44605,0.99627 -0.99628,0.99627 -0.55023,0 -0.99628,-0.44602 -0.99628,-0.99627 0,-0.55023 0.44605,-0.99628 0.99628,-0.99628 0.55023,0 0.99628,0.44605 0.99628,0.99628 z" /><g
             id="g76" /><path
             id="path78"
             style="fill:#000000;fill-opacity:1;fill-rule:nonzero;stroke:none"
             d="m 9.58844,-4.96068 c 0,0.55025 -0.44604,0.99628 -0.99628,0.99628 -0.55023,0 -0.99627,-0.44603 -0.99627,-0.99628 0,-0.55023 0.44604,-0.99627 0.99627,-0.99627 0.55024,0 0.99628,0.44604 0.99628,0.99627 z" /><g
             id="g80" /><path
             id="path82"
             style="fill:#000000;fill-opacity:1;fill-rule:nonzero;stroke:none"
             d="m 9.58844,4.96068 c 0,0.55023 -0.44604,0.99627 -0.99628,0.99627 -0.55023,0 -0.99627,-0.44604 -0.99627,-0.99627 0,-0.55025 0.44604,-0.99628 0.99627,-0.99628 0.55024,0 0.99628,0.44603 0.99628,0.99628 z" /><g
             id="g84"><path
               id="path86"
               style="fill:none;stroke:#000000;stroke-width:0.3985;stroke-linecap:butt;stroke-linejoin:miter;stroke-miterlimit:10;stroke-dasharray:none;stroke-opacity:0.3"
               d="M 8.59216,4.96068 0,9.92137 -8.59216,4.96068 V -4.96068 L 0,-9.92137 8.59216,-4.96068 Z" /></g><g
             id="g88" /><path
             id="path90"
             style="fill:#000000;fill-opacity:1;fill-rule:nonzero;stroke:none"
             d="m 0.99628,19.84276 c 0,0.55023 -0.44605,0.99628 -0.99628,0.99628 -0.55023,0 -0.99628,-0.44605 -0.99628,-0.99628 0,-0.55023 0.44605,-0.99628 0.99628,-0.99628 0.55023,0 0.99628,0.44605 0.99628,0.99628 z" /><g
             id="g92" /><path
             id="path94"
             style="fill:#000000;fill-opacity:1;fill-rule:nonzero;stroke:none"
             d="m -16.1881,9.92137 c 0,0.55023 -0.44604,0.99628 -0.99627,0.99628 -0.55023,0 -0.99628,-0.44605 -0.99628,-0.99628 0,-0.55025 0.44605,-0.99627 0.99628,-0.99627 0.55023,0 0.99627,0.44602 0.99627,0.99627 z" /><g
             id="g96" /><path
             id="path98"
             style="fill:#000000;fill-opacity:1;fill-rule:nonzero;stroke:none"
             d="m -16.1881,-9.92137 c 0,0.55025 -0.44604,0.99627 -0.99627,0.99627 -0.55023,0 -0.99628,-0.44602 -0.99628,-0.99627 0,-0.55023 0.44605,-0.99628 0.99628,-0.99628 0.55023,0 0.99627,0.44605 0.99627,0.99628 z" /><g
             id="g100" /><path
             id="path102"
             style="fill:#000000;fill-opacity:1;fill-rule:nonzero;stroke:none"
             d="m 0.99628,-19.84276 c 0,0.55023 -0.44605,0.99628 -0.99628,0.99628 -0.55023,0 -0.99628,-0.44605 -0.99628,-0.99628 0,-0.55023 0.44605,-0.99628 0.99628,-0.99628 0.55023,0 0.99628,0.44605 0.99628,0.99628 z" /><g
             id="g104" /><path
             id="path106"
             style="fill:#000000;fill-opacity:1;fill-rule:nonzero;stroke:none"
             d="m 18.18065,-9.92137 c 0,0.55025 -0.44605,0.99627 -0.99628,0.99627 -0.55023,0 -0.99627,-0.44602 -0.99627,-0.99627 0,-0.55023 0.44604,-0.99628 0.99627,-0.99628 0.55023,0 0.99628,0.44605 0.99628,0.99628 z" /><g
             id="g108" /><path
             id="path110"
             style="fill:#000000;fill-opacity:1;fill-rule:nonzero;stroke:none"
             d="m 18.18065,9.92137 c 0,0.55023 -0.44605,0.99628 -0.99628,0.99628 -0.55023,0 -0.99627,-0.44605 -0.99627,-0.99628 0,-0.55025 0.44604,-0.99627 0.99627,-0.99627 0.55023,0 0.99628,0.44602 0.99628,0.99627 z" /><g
             id="g112"><path
               id="path114"
               style="fill:none;stroke:#000000;stroke-width:0.3985;stroke-linecap:butt;stroke-linejoin:miter;stroke-miterlimit:10;stroke-dasharray:none;stroke-opacity:0.3"
               d="M 17.18437,9.92137 0,19.84276 -17.18437,9.92137 V -9.92137 L 0,-19.84276 17.18437,-9.92137 Z" /></g><g
             id="g116" /><path
             id="path118"
             style="fill:#000000;fill-opacity:1;fill-rule:nonzero;stroke:none"
             d="m 0.99628,29.76414 c 0,0.55024 -0.44605,0.99628 -0.99628,0.99628 -0.55023,0 -0.99628,-0.44604 -0.99628,-0.99628 0,-0.55023 0.44605,-0.99627 0.99628,-0.99627 0.55023,0 0.99628,0.44604 0.99628,0.99627 z" /><g
             id="g120" /><path
             id="path122"
             style="fill:#000000;fill-opacity:1;fill-rule:nonzero;stroke:none"
             d="m -24.7803,14.88206 c 0,0.55024 -0.44603,0.99628 -0.99628,0.99628 -0.55023,0 -0.99628,-0.44604 -0.99628,-0.99628 0,-0.55024 0.44605,-0.99627 0.99628,-0.99627 0.55025,0 0.99628,0.44603 0.99628,0.99627 z" /><g
             id="g124" /><path
             id="path126"
             style="fill:#000000;fill-opacity:1;fill-rule:nonzero;stroke:none"
             d="m -24.7803,-14.88206 c 0,0.55024 -0.44603,0.99627 -0.99628,0.99627 -0.55023,0 -0.99628,-0.44603 -0.99628,-0.99627 0,-0.55024 0.44605,-0.99628 0.99628,-0.99628 0.55025,0 0.99628,0.44604 0.99628,0.99628 z" /><g
             id="g128" /><path
             id="path130"
             style="fill:#000000;fill-opacity:1;fill-rule:nonzero;stroke:none"
             d="m 0.99628,-29.76414 c 0,0.55023 -0.44605,0.99627 -0.99628,0.99627 -0.55023,0 -0.99628,-0.44604 -0.99628,-0.99627 0,-0.55024 0.44605,-0.99628 0.99628,-0.99628 0.55023,0 0.99628,0.44604 0.99628,0.99628 z" /><g
             id="g132" /><path
             id="path134"
             style="fill:#000000;fill-opacity:1;fill-rule:nonzero;stroke:none"
             d="m 26.77286,-14.88206 c 0,0.55024 -0.44605,0.99627 -0.99628,0.99627 -0.55025,0 -0.99628,-0.44603 -0.99628,-0.99627 0,-0.55024 0.44603,-0.99628 0.99628,-0.99628 0.55023,0 0.99628,0.44604 0.99628,0.99628 z" /><g
             id="g136" /><path
             id="path138"
             style="fill:#000000;fill-opacity:1;fill-rule:nonzero;stroke:none"
             d="m 26.77286,14.88206 c 0,0.55024 -0.44605,0.99628 -0.99628,0.99628 -0.55025,0 -0.99628,-0.44604 -0.99628,-0.99628 0,-0.55024 0.44603,-0.99627 0.99628,-0.99627 0.55023,0 0.99628,0.44603 0.99628,0.99627 z" /><g
             id="g140"><path
               id="path142"
               style="fill:none;stroke:#000000;stroke-width:0.3985;stroke-linecap:butt;stroke-linejoin:miter;stroke-miterlimit:10;stroke-dasharray:none;stroke-opacity:0.3"
               d="M 25.77658,14.88206 0,29.76414 -25.77658,14.88206 V -14.88206 L 0,-29.76414 25.77658,-14.88206 Z" /></g><g
             id="g144" /><path
             id="path146"
             style="fill:#000000;fill-opacity:1;fill-rule:nonzero;stroke:none"
             d="m 0.99628,39.68553 c 0,0.55023 -0.44605,0.99628 -0.99628,0.99628 -0.55023,0 -0.99628,-0.44605 -0.99628,-0.99628 0,-0.55023 0.44605,-0.99628 0.99628,-0.99628 0.55023,0 0.99628,0.44605 0.99628,0.99628 z" /><g
             id="g148" /><path
             id="path150"
             style="fill:#000000;fill-opacity:1;fill-rule:nonzero;stroke:none"
             d="m -33.37248,19.84276 c 0,0.55023 -0.44605,0.99628 -0.99628,0.99628 -0.55023,0 -0.99628,-0.44605 -0.99628,-0.99628 0,-0.55023 0.44605,-0.99628 0.99628,-0.99628 0.55023,0 0.99628,0.44605 0.99628,0.99628 z" /><g
             id="g152" /><path
             id="path154"
             style="fill:#000000;fill-opacity:1;fill-rule:nonzero;stroke:none"
             d="m -33.37248,-19.84276 c 0,0.55023 -0.44605,0.99628 -0.99628,0.99628 -0.55023,0 -0.99628,-0.44605 -0.99628,-0.99628 0,-0.55023 0.44605,-0.99628 0.99628,-0.99628 0.55023,0 0.99628,0.44605 0.99628,0.99628 z" /><g
             id="g156" /><path
             id="path158"
             style="fill:#000000;fill-opacity:1;fill-rule:nonzero;stroke:none"
             d="m 0.99628,-39.68553 c 0,0.55023 -0.44605,0.99628 -0.99628,0.99628 -0.55023,0 -0.99628,-0.44605 -0.99628,-0.99628 0,-0.55023 0.44605,-0.99628 0.99628,-0.99628 0.55023,0 0.99628,0.44605 0.99628,0.99628 z" /><g
             id="g160" /><path
             id="path162"
             style="fill:#000000;fill-opacity:1;fill-rule:nonzero;stroke:none"
             d="m 35.36504,-19.84276 c 0,0.55023 -0.44605,0.99628 -0.99628,0.99628 -0.55023,0 -0.99628,-0.44605 -0.99628,-0.99628 0,-0.55023 0.44605,-0.99628 0.99628,-0.99628 0.55023,0 0.99628,0.44605 0.99628,0.99628 z" /><g
             id="g164" /><path
             id="path166"
             style="fill:#000000;fill-opacity:1;fill-rule:nonzero;stroke:none"
             d="m 35.36504,19.84276 c 0,0.55023 -0.44605,0.99628 -0.99628,0.99628 -0.55023,0 -0.99628,-0.44605 -0.99628,-0.99628 0,-0.55023 0.44605,-0.99628 0.99628,-0.99628 0.55023,0 0.99628,0.44605 0.99628,0.99628 z" /><g
             id="g168"><path
               id="path170"
               style="fill:none;stroke:#000000;stroke-width:0.3985;stroke-linecap:butt;stroke-linejoin:miter;stroke-miterlimit:10;stroke-dasharray:none;stroke-opacity:0.3"
               d="M 34.36876,19.84276 0,39.68553 -34.36876,19.84276 V -19.84276 L 0,-39.68553 34.36876,-19.84276 Z" /></g><g
             id="g172" /><path
             id="path174"
             style="fill:#000000;fill-opacity:1;fill-rule:nonzero;stroke:none"
             d="m 0.99628,49.60692 c 0,0.55023 -0.44605,0.99628 -0.99628,0.99628 -0.55023,0 -0.99628,-0.44605 -0.99628,-0.99628 0,-0.55023 0.44605,-0.99628 0.99628,-0.99628 0.55023,0 0.99628,0.44605 0.99628,0.99628 z" /><g
             id="g176" /><path
             id="path178"
             style="fill:#000000;fill-opacity:1;fill-rule:nonzero;stroke:none"
             d="m -41.96469,24.80345 c 0,0.55023 -0.44605,0.99628 -0.99628,0.99628 -0.55023,0 -0.99627,-0.44605 -0.99627,-0.99628 0,-0.55023 0.44604,-0.99628 0.99627,-0.99628 0.55023,0 0.99628,0.44605 0.99628,0.99628 z" /><g
             id="g180" /><path
             id="path182"
             style="fill:#000000;fill-opacity:1;fill-rule:nonzero;stroke:none"
             d="m -41.96469,-24.80345 c 0,0.55023 -0.44605,0.99628 -0.99628,0.99628 -0.55023,0 -0.99627,-0.44605 -0.99627,-0.99628 0,-0.55023 0.44604,-0.99628 0.99627,-0.99628 0.55023,0 0.99628,0.44605 0.99628,0.99628 z" /><g
             id="g184" /><path
             id="path186"
             style="fill:#000000;fill-opacity:1;fill-rule:nonzero;stroke:none"
             d="m 0.99628,-49.60692 c 0,0.55023 -0.44605,0.99628 -0.99628,0.99628 -0.55023,0 -0.99628,-0.44605 -0.99628,-0.99628 0,-0.55023 0.44605,-0.99628 0.99628,-0.99628 0.55023,0 0.99628,0.44605 0.99628,0.99628 z" /><g
             id="g188" /><path
             id="path190"
             style="fill:#000000;fill-opacity:1;fill-rule:nonzero;stroke:none"
             d="m 43.95724,-24.80345 c 0,0.55023 -0.44604,0.99628 -0.99627,0.99628 -0.55023,0 -0.99628,-0.44605 -0.99628,-0.99628 0,-0.55023 0.44605,-0.99628 0.99628,-0.99628 0.55023,0 0.99627,0.44605 0.99627,0.99628 z" /><g
             id="g192" /><path
             id="path194"
             style="fill:#000000;fill-opacity:1;fill-rule:nonzero;stroke:none"
             d="m 43.95724,24.80345 c 0,0.55023 -0.44604,0.99628 -0.99627,0.99628 -0.55023,0 -0.99628,-0.44605 -0.99628,-0.99628 0,-0.55023 0.44605,-0.99628 0.99628,-0.99628 0.55023,0 0.99627,0.44605 0.99627,0.99628 z" /><g
             id="g196"><path
               id="path198"
               style="fill:none;stroke:#000000;stroke-width:0.3985;stroke-linecap:butt;stroke-linejoin:miter;stroke-miterlimit:10;stroke-dasharray:none;stroke-opacity:0.3"
               d="M 42.96097,24.80345 0,49.60692 -42.96097,24.80345 v -49.6069 L 0,-49.60692 42.96097,-24.80345 Z" /></g><g
             id="g200" /><path
             id="path202"
             style="fill:#000000;fill-opacity:1;fill-rule:nonzero;stroke:none"
             d="m 0.99628,59.5283 c 0,0.55025 -0.44605,0.99628 -0.99628,0.99628 -0.55023,0 -0.99628,-0.44603 -0.99628,-0.99628 0,-0.55023 0.44605,-0.99627 0.99628,-0.99627 0.55023,0 0.99628,0.44604 0.99628,0.99627 z" /><g
             id="g204" /><path
             id="path206"
             style="fill:#000000;fill-opacity:1;fill-rule:nonzero;stroke:none"
             d="m -50.5569,29.76414 c 0,0.55024 -0.44603,0.99628 -0.99628,0.99628 -0.55023,0 -0.99627,-0.44604 -0.99627,-0.99628 0,-0.55023 0.44604,-0.99627 0.99627,-0.99627 0.55025,0 0.99628,0.44604 0.99628,0.99627 z" /><g
             id="g208" /><path
             id="path210"
             style="fill:#000000;fill-opacity:1;fill-rule:nonzero;stroke:none"
             d="m -50.5569,-29.76414 c 0,0.55023 -0.44603,0.99627 -0.99628,0.99627 -0.55023,0 -0.99627,-0.44604 -0.99627,-0.99627 0,-0.55024 0.44604,-0.99628 0.99627,-0.99628 0.55025,0 0.99628,0.44604 0.99628,0.99628 z" /><g
             id="g212" /><path
             id="path214"
             style="fill:#000000;fill-opacity:1;fill-rule:nonzero;stroke:none"
             d="m 0.99628,-59.5283 c 0,0.55023 -0.44605,0.99627 -0.99628,0.99627 -0.55023,0 -0.99628,-0.44604 -0.99628,-0.99627 0,-0.55025 0.44605,-0.99628 0.99628,-0.99628 0.55023,0 0.99628,0.44603 0.99628,0.99628 z" /><g
             id="g216" /><path
             id="path218"
             style="fill:#000000;fill-opacity:1;fill-rule:nonzero;stroke:none"
             d="m 52.54945,-29.76414 c 0,0.55023 -0.44604,0.99627 -0.99627,0.99627 -0.55025,0 -0.99628,-0.44604 -0.99628,-0.99627 0,-0.55024 0.44603,-0.99628 0.99628,-0.99628 0.55023,0 0.99627,0.44604 0.99627,0.99628 z" /><g
             id="g220" /><path
             id="path222"
             style="fill:#000000;fill-opacity:1;fill-rule:nonzero;stroke:none"
             d="m 52.54945,29.76414 c 0,0.55024 -0.44604,0.99628 -0.99627,0.99628 -0.55025,0 -0.99628,-0.44604 -0.99628,-0.99628 0,-0.55023 0.44603,-0.99627 0.99628,-0.99627 0.55023,0 0.99627,0.44604 0.99627,0.99627 z" /><g
             id="g224"><path
               id="path226"
               style="fill:none;stroke:#000000;stroke-width:0.3985;stroke-linecap:butt;stroke-linejoin:miter;stroke-miterlimit:10;stroke-dasharray:none;stroke-opacity:0.3"
               d="M 51.55318,29.76414 0,59.5283 -51.55318,29.76414 V -29.76414 L 0,-59.5283 51.55318,-29.76414 Z" /></g><g
             id="g228" /><path
             id="path230"
             style="fill:#000000;fill-opacity:1;fill-rule:nonzero;stroke:none"
             d="m 0.99628,69.44969 c 0,0.55025 -0.44605,0.99628 -0.99628,0.99628 -0.55023,0 -0.99628,-0.44603 -0.99628,-0.99628 0,-0.55023 0.44605,-0.99628 0.99628,-0.99628 0.55023,0 0.99628,0.44605 0.99628,0.99628 z" /><g
             id="g232" /><path
             id="path234"
             style="fill:#000000;fill-opacity:1;fill-rule:nonzero;stroke:none"
             d="m -59.14908,34.72484 c 0,0.55023 -0.44604,0.99628 -0.99628,0.99628 -0.55023,0 -0.99627,-0.44605 -0.99627,-0.99628 0,-0.55024 0.44604,-0.99628 0.99627,-0.99628 0.55024,0 0.99628,0.44604 0.99628,0.99628 z" /><g
             id="g236" /><path
             id="path238"
             style="fill:#000000;fill-opacity:1;fill-rule:nonzero;stroke:none"
             d="m -59.14908,-34.72484 c 0,0.55024 -0.44604,0.99628 -0.99628,0.99628 -0.55023,0 -0.99627,-0.44604 -0.99627,-0.99628 0,-0.55023 0.44604,-0.99628 0.99627,-0.99628 0.55024,0 0.99628,0.44605 0.99628,0.99628 z" /><g
             id="g240" /><path
             id="path242"
             style="fill:#000000;fill-opacity:1;fill-rule:nonzero;stroke:none"
             d="m 0.99628,-69.44969 c 0,0.55023 -0.44605,0.99628 -0.99628,0.99628 -0.55023,0 -0.99628,-0.44605 -0.99628,-0.99628 0,-0.55025 0.44605,-0.99628 0.99628,-0.99628 0.55023,0 0.99628,0.44603 0.99628,0.99628 z" /><g
             id="g244" /><path
             id="path246"
             style="fill:#000000;fill-opacity:1;fill-rule:nonzero;stroke:none"
             d="m 61.14163,-34.72484 c 0,0.55024 -0.44604,0.99628 -0.99627,0.99628 -0.55024,0 -0.99628,-0.44604 -0.99628,-0.99628 0,-0.55023 0.44604,-0.99628 0.99628,-0.99628 0.55023,0 0.99627,0.44605 0.99627,0.99628 z" /><g
             id="g248" /><path
             id="path250"
             style="fill:#000000;fill-opacity:1;fill-rule:nonzero;stroke:none"
             d="m 61.14163,34.72484 c 0,0.55023 -0.44604,0.99628 -0.99627,0.99628 -0.55024,0 -0.99628,-0.44605 -0.99628,-0.99628 0,-0.55024 0.44604,-0.99628 0.99628,-0.99628 0.55023,0 0.99627,0.44604 0.99627,0.99628 z" /><g
             id="g252"><path
               id="path254"
               style="fill:none;stroke:#000000;stroke-width:0.3985;stroke-linecap:butt;stroke-linejoin:miter;stroke-miterlimit:10;stroke-dasharray:none;stroke-opacity:0.3"
               d="M 60.14536,34.72484 0,69.44969 -60.14536,34.72484 V -34.72484 L 0,-69.44969 60.14536,-34.72484 Z" /></g><g
             id="g256" /><path
             id="path258"
             style="fill:#000000;fill-opacity:1;fill-rule:nonzero;stroke:none"
             d="m 0.99628,79.3711 c 0,0.55023 -0.44605,0.99627 -0.99628,0.99627 -0.55023,0 -0.99628,-0.44604 -0.99628,-0.99627 0,-0.55025 0.44605,-0.99628 0.99628,-0.99628 0.55023,0 0.99628,0.44603 0.99628,0.99628 z" /><g
             id="g260" /><path
             id="path262"
             style="fill:#000000;fill-opacity:1;fill-rule:nonzero;stroke:none"
             d="m -67.74129,39.68553 c 0,0.55023 -0.44604,0.99628 -0.99627,0.99628 -0.55024,0 -0.99628,-0.44605 -0.99628,-0.99628 0,-0.55023 0.44604,-0.99628 0.99628,-0.99628 0.55023,0 0.99627,0.44605 0.99627,0.99628 z" /><g
             id="g264" /><path
             id="path266"
             style="fill:#000000;fill-opacity:1;fill-rule:nonzero;stroke:none"
             d="m -67.74129,-39.68553 c 0,0.55023 -0.44604,0.99628 -0.99627,0.99628 -0.55024,0 -0.99628,-0.44605 -0.99628,-0.99628 0,-0.55023 0.44604,-0.99628 0.99628,-0.99628 0.55023,0 0.99627,0.44605 0.99627,0.99628 z" /><g
             id="g268" /><path
             id="path270"
             style="fill:#000000;fill-opacity:1;fill-rule:nonzero;stroke:none"
             d="m 0.99628,-79.3711 c 0,0.55025 -0.44605,0.99628 -0.99628,0.99628 -0.55023,0 -0.99628,-0.44603 -0.99628,-0.99628 0,-0.55023 0.44605,-0.99627 0.99628,-0.99627 0.55023,0 0.99628,0.44604 0.99628,0.99627 z" /><g
             id="g272" /><path
             id="path274"
             style="fill:#000000;fill-opacity:1;fill-rule:nonzero;stroke:none"
             d="m 69.73384,-39.68553 c 0,0.55023 -0.44604,0.99628 -0.99628,0.99628 -0.55023,0 -0.99627,-0.44605 -0.99627,-0.99628 0,-0.55023 0.44604,-0.99628 0.99627,-0.99628 0.55024,0 0.99628,0.44605 0.99628,0.99628 z" /><g
             id="g276" /><path
             id="path278"
             style="fill:#000000;fill-opacity:1;fill-rule:nonzero;stroke:none"
             d="m 69.73384,39.68553 c 0,0.55023 -0.44604,0.99628 -0.99628,0.99628 -0.55023,0 -0.99627,-0.44605 -0.99627,-0.99628 0,-0.55023 0.44604,-0.99628 0.99627,-0.99628 0.55024,0 0.99628,0.44605 0.99628,0.99628 z" /><g
             id="g280"><path
               id="path282"
               style="fill:none;stroke:#000000;stroke-width:0.3985;stroke-linecap:butt;stroke-linejoin:miter;stroke-miterlimit:10;stroke-dasharray:none;stroke-opacity:0.3"
               d="M 68.73756,39.68553 0,79.3711 -68.73756,39.68553 V -39.68553 L 0,-79.3711 68.73756,-39.68553 Z" /></g><g
             id="g284" /><path
             id="path286"
             style="fill:#000000;fill-opacity:1;fill-rule:nonzero;stroke:none"
             d="m 0.99628,89.29248 c 0,0.55023 -0.44605,0.99628 -0.99628,0.99628 -0.55023,0 -0.99628,-0.44605 -0.99628,-0.99628 0,-0.55025 0.44605,-0.99628 0.99628,-0.99628 0.55023,0 0.99628,0.44603 0.99628,0.99628 z" /><g
             id="g288" /><path
             id="path290"
             style="fill:#000000;fill-opacity:1;fill-rule:nonzero;stroke:none"
             d="m -76.3335,44.64622 c 0,0.55024 -0.44603,0.99628 -0.99627,0.99628 -0.55023,0 -0.99628,-0.44604 -0.99628,-0.99628 0,-0.55022 0.44605,-0.99627 0.99628,-0.99627 0.55024,0 0.99627,0.44605 0.99627,0.99627 z" /><g
             id="g292" /><path
             id="path294"
             style="fill:#000000;fill-opacity:1;fill-rule:nonzero;stroke:none"
             d="m -76.3335,-44.64622 c 0,0.55022 -0.44603,0.99627 -0.99627,0.99627 -0.55023,0 -0.99628,-0.44605 -0.99628,-0.99627 0,-0.55024 0.44605,-0.99628 0.99628,-0.99628 0.55024,0 0.99627,0.44604 0.99627,0.99628 z" /><g
             id="g296" /><path
             id="path298"
             style="fill:#000000;fill-opacity:1;fill-rule:nonzero;stroke:none"
             d="m 0.99628,-89.29248 c 0,0.55025 -0.44605,0.99628 -0.99628,0.99628 -0.55023,0 -0.99628,-0.44603 -0.99628,-0.99628 0,-0.55023 0.44605,-0.99628 0.99628,-0.99628 0.55023,0 0.99628,0.44605 0.99628,0.99628 z" /><g
             id="g300" /><path
             id="path302"
             style="fill:#000000;fill-opacity:1;fill-rule:nonzero;stroke:none"
             d="m 78.32605,-44.64622 c 0,0.55022 -0.44605,0.99627 -0.99628,0.99627 -0.55024,0 -0.99627,-0.44605 -0.99627,-0.99627 0,-0.55024 0.44603,-0.99628 0.99627,-0.99628 0.55023,0 0.99628,0.44604 0.99628,0.99628 z" /><g
             id="g304" /><path
             id="path306"
             style="fill:#000000;fill-opacity:1;fill-rule:nonzero;stroke:none"
             d="m 78.32605,44.64622 c 0,0.55024 -0.44605,0.99628 -0.99628,0.99628 -0.55024,0 -0.99627,-0.44604 -0.99627,-0.99628 0,-0.55022 0.44603,-0.99627 0.99627,-0.99627 0.55023,0 0.99628,0.44605 0.99628,0.99627 z" /><g
             id="g308"><path
               id="path310"
               style="fill:none;stroke:#000000;stroke-width:0.3985;stroke-linecap:butt;stroke-linejoin:miter;stroke-miterlimit:10;stroke-dasharray:none;stroke-opacity:0.3"
               d="M 77.32977,44.64622 0,89.29248 -77.32977,44.64622 V -44.64622 L 0,-89.29248 77.32977,-44.64622 Z" /></g><g
             id="g312" /><path
             id="path314"
             style="fill:#000000;fill-opacity:1;fill-rule:nonzero;stroke:none"
             d="m 0.99628,99.21387 c 0,0.55023 -0.44605,0.99627 -0.99628,0.99627 -0.55023,0 -0.99628,-0.44604 -0.99628,-0.99627 0,-0.55023 0.44605,-0.99628 0.99628,-0.99628 0.55023,0 0.99628,0.44605 0.99628,0.99628 z" /><g
             id="g316" /><path
             id="path318"
             style="fill:#000000;fill-opacity:1;fill-rule:nonzero;stroke:none"
             d="m -84.92567,49.60692 c 0,0.55023 -0.44605,0.99628 -0.99628,0.99628 -0.55023,0 -0.99628,-0.44605 -0.99628,-0.99628 0,-0.55023 0.44605,-0.99628 0.99628,-0.99628 0.55023,0 0.99628,0.44605 0.99628,0.99628 z" /><g
             id="g320" /><path
             id="path322"
             style="fill:#000000;fill-opacity:1;fill-rule:nonzero;stroke:none"
             d="m -84.92567,-49.60692 c 0,0.55023 -0.44605,0.99628 -0.99628,0.99628 -0.55023,0 -0.99628,-0.44605 -0.99628,-0.99628 0,-0.55023 0.44605,-0.99628 0.99628,-0.99628 0.55023,0 0.99628,0.44605 0.99628,0.99628 z" /><g
             id="g324" /><path
             id="path326"
             style="fill:#000000;fill-opacity:1;fill-rule:nonzero;stroke:none"
             d="m 0.99628,-99.21387 c 0,0.55023 -0.44605,0.99628 -0.99628,0.99628 -0.55023,0 -0.99628,-0.44605 -0.99628,-0.99628 0,-0.55023 0.44605,-0.99627 0.99628,-0.99627 0.55023,0 0.99628,0.44604 0.99628,0.99627 z" /><g
             id="g328" /><path
             id="path330"
             style="fill:#000000;fill-opacity:1;fill-rule:nonzero;stroke:none"
             d="m 86.91823,-49.60692 c 0,0.55023 -0.44605,0.99628 -0.99628,0.99628 -0.55023,0 -0.99628,-0.44605 -0.99628,-0.99628 0,-0.55023 0.44605,-0.99628 0.99628,-0.99628 0.55023,0 0.99628,0.44605 0.99628,0.99628 z" /><g
             id="g332" /><path
             id="path334"
             style="fill:#000000;fill-opacity:1;fill-rule:nonzero;stroke:none"
             d="m 86.91823,49.60692 c 0,0.55023 -0.44605,0.99628 -0.99628,0.99628 -0.55023,0 -0.99628,-0.44605 -0.99628,-0.99628 0,-0.55023 0.44605,-0.99628 0.99628,-0.99628 0.55023,0 0.99628,0.44605 0.99628,0.99628 z" /><g
             id="g336"><path
               id="path338"
               style="fill:none;stroke:#000000;stroke-width:0.3985;stroke-linecap:butt;stroke-linejoin:miter;stroke-miterlimit:10;stroke-dasharray:none;stroke-opacity:0.3"
               d="M 85.92195,49.60692 0,99.21387 -85.92195,49.60692 V -49.60692 L 0,-99.21387 85.92195,-49.60692 Z" /></g><g
             id="g340"><g
               transform="translate(-24.572,112.141)"
               id="g342"><g
                 id="g344"><g
                   transform="translate(-123.994,-231.061)"
                   id="g346"><text
                     id="text350"
                     style="font-variant:normal;font-weight:normal;font-size:4.98129988px;font-family:CMR5;-inkscape-font-specification:CMR5;writing-mode:lr-tb;fill:#000000;fill-opacity:1;fill-rule:nonzero;stroke:none"
                     transform="matrix(1,0,0,-1,123.994,231.061)"><tspan
                       id="tspan348"
                       y="0"
                       x="0 4.6560211 8.2206392 11.956614 13.963082 15.96955 21.883846 24.063166 27.799141 31.535116 34.579189 37.277557 39.284027 42.674297 46.410275">Bodilyfunctions</tspan></text>
<g
                     transform="translate(123.994,231.061)"
                     id="g352" /></g></g><g
                 transform="translate(24.572,-112.141)"
                 id="g354" /></g></g><g
             id="g356"><g
               transform="translate(-145.245,55.448)"
               id="g358"><g
                 id="g360"><g
                   transform="translate(-3.321,-174.368)"
                   id="g362"><text
                     id="text366"
                     style="font-variant:normal;font-weight:normal;font-size:4.98129988px;font-family:CMR5;-inkscape-font-specification:CMR5;writing-mode:lr-tb;fill:#000000;fill-opacity:1;fill-rule:nonzero;stroke:none"
                     transform="matrix(1,0,0,-1,3.321,174.368)"><tspan
                       id="tspan364"
                       y="0"
                       x="0 5.9222674 8.9663401 12.527969 15.226339 18.616613 22.974255 25.153572 28.889547 32.625523 35.669594 38.367966 40.374432 43.764706 47.500679 52.589577 60.060532 63.970852 67.014923 69.713295 72.757362 75.801437 79.537415 82.235786 84.242249 87.632523 91.3685">Mentalfunctions&amp;perceptions</tspan></text>
<g
                     transform="translate(3.321,174.368)"
                     id="g368" /></g></g><g
                 transform="translate(145.245,-55.448)"
                 id="g370" /></g></g><g
             id="g372"><g
               transform="translate(-127.306,-57.938)"
               id="g374"><g
                 id="g376"><g
                   transform="translate(-21.26,-60.982)"
                   id="g378"><text
                     id="text382"
                     style="font-variant:normal;font-weight:normal;font-size:4.98129988px;font-family:CMR5;-inkscape-font-specification:CMR5;writing-mode:lr-tb;fill:#000000;fill-opacity:1;fill-rule:nonzero;stroke:none"
                     transform="matrix(1,0,0,-1,21.26,60.982)"><tspan
                       id="tspan380"
                       y="0"
                       x="0 3.735975 7.4719501 9.4784174 12.176787 14.183255 16.881626 20.617601 24.007874 28.365515 32.10149 34.107956 39.573441 42.617512 46.353489 49.086227 51.092697 54.482967">Spiritualdimension</tspan></text>
<g
                     transform="translate(21.26,60.982)"
                     id="g384" /></g></g><g
                 transform="translate(127.306,57.938)"
                 id="g386" /></g></g><g
             id="g388"><g
               transform="translate(-20.929,-114.631)"
               id="g390"><g
                 id="g392"><g
                   transform="translate(-127.637,-4.289)"
                   id="g394"><text
                     id="text398"
                     style="font-variant:normal;font-weight:normal;font-size:4.98129988px;font-family:CMR5;-inkscape-font-specification:CMR5;writing-mode:lr-tb;fill:#000000;fill-opacity:1;fill-rule:nonzero;stroke:none"
                     transform="matrix(1,0,0,-1,127.637,4.289)"><tspan
                       id="tspan396"
                       y="0"
                       x="0 5.1197801 8.8557549 12.246028 14.252496 16.258963 18.782988 24.697285 28.087559 32.623032 34.629501 36.635967 38.815285">Qualityoflife</tspan></text>
<g
                     transform="translate(127.637,4.289)"
                     id="g400" /></g></g><g
                 transform="translate(20.929,114.631)"
                 id="g402" /></g></g><g
             id="g404"><g
               transform="translate(52.221,-57.938)"
               id="g406"><g
                 id="g408"><g
                   transform="translate(-200.787,-60.982)"
                   id="g410"><text
                     id="text414"
                     style="font-variant:normal;font-weight:normal;font-size:4.98129988px;font-family:CMR5;-inkscape-font-specification:CMR5;writing-mode:lr-tb;fill:#000000;fill-opacity:1;fill-rule:nonzero;stroke:none"
                     transform="matrix(1,0,0,-1,200.787,60.982)"><tspan
                       id="tspan412"
                       y="0"
                       x="0 3.735975 7.3005934 10.344666 12.351133 15.741406 20.099047 27.570002 31.305977 34.870594 37.914665 39.921135 42.965206 45.663578 49.053848 53.411491 57.147465 60.537739 63.236111 65.934479 67.940948 70.985016 72.991486 76.727463 80.117737 82.816109 84.822571 88.212845">Social&amp;Societalparticipation</tspan></text>
<g
                     transform="translate(200.787,60.982)"
                     id="g416" /></g></g><g
                 transform="translate(-52.221,57.938)"
                 id="g418" /></g></g><g
             id="g420"><g
               transform="translate(72.205,55.448)"
               id="g422"><g
                 id="g424"><g
                   transform="translate(-220.771,-174.368)"
                   id="g426"><text
                     id="text430"
                     style="font-variant:normal;font-weight:normal;font-size:4.98129988px;font-family:CMR5;-inkscape-font-specification:CMR5;writing-mode:lr-tb;fill:#000000;fill-opacity:1;fill-rule:nonzero;stroke:none"
                     transform="matrix(1,0,0,-1,220.771,174.368)"><tspan
                       id="tspan428"
                       y="0"
                       x="0 5.0022216 8.3924942 10.398962 12.40543 18.319727 20.499046 24.235022 27.970995 31.015068 33.71344 35.719906 39.11018 42.846153 44.852623 48.588596">Dailyfunctioning</tspan></text>
<g
                     transform="translate(220.771,174.368)"
                     id="g432" /></g></g><g
                 transform="translate(-72.205,-55.448)"
                 id="g434" /></g></g></g></g></g></g></svg>