<?xml version="1.0" encoding="UTF-8" standalone="no"?>
<svg
   xmlns:dc="http://purl.org/dc/elements/1.1/"
   xmlns:cc="http://creativecommons.org/ns#"
   xmlns:rdf="http://www.w3.org/1999/02/22-rdf-syntax-ns#"
   xmlns:svg="http://www.w3.org/2000/svg"
   xmlns="http://www.w3.org/2000/svg"
   viewBox="0 0 389.87866 364.36667"
   height="364.36667"
   width="389.87866"
   xml:space="preserve"
   id="svg2"
   version="1.1"><metadata
     id="metadata8"><rdf:RDF><cc:Work
         rdf:about=""><dc:format>image/svg+xml</dc:format><dc:type
           rdf:resource="http://purl.org/dc/dcmitype/StillImage" /></cc:Work></rdf:RDF></metadata><defs
     id="defs6" /><g
     transform="matrix(1.3333333,0,0,-1.3333333,0,364.36667)"
     id="g10"><g
       transform="translate(146.204,136.638)"
       id="g12"><g
         id="g14"><g
           id="g16"><g
             id="g18" /><path
             id="path20"
             style="fill:none;stroke:#000000;stroke-width:0.3985;stroke-linecap:butt;stroke-linejoin:miter;stroke-miterlimit:10;stroke-dasharray:none;stroke-opacity:1"
             d="M 0,0 V 99.21387" /><path
             id="path22"
             style="fill:none;stroke:#000000;stroke-width:0.3985;stroke-linecap:butt;stroke-linejoin:miter;stroke-miterlimit:10;stroke-dasharray:none;stroke-opacity:1"
             d="M 0,0 -85.92195,49.60692" /><path
             id="path24"
             style="fill:none;stroke:#000000;stroke-width:0.3985;stroke-linecap:butt;stroke-linejoin:miter;stroke-miterlimit:10;stroke-dasharray:none;stroke-opacity:1"
             d="M 0,0 -85.92195,-49.60692" /><path
             id="path26"
             style="fill:none;stroke:#000000;stroke-width:0.3985;stroke-linecap:butt;stroke-linejoin:miter;stroke-miterlimit:10;stroke-dasharray:none;stroke-opacity:1"
             d="M 0,0 V -99.21387" /><path
             id="path28"
             style="fill:none;stroke:#000000;stroke-width:0.3985;stroke-linecap:butt;stroke-linejoin:miter;stroke-miterlimit:10;stroke-dasharray:none;stroke-opacity:1"
             d="M 0,0 85.92195,-49.60692" /><path
             id="path30"
             style="fill:none;stroke:#000000;stroke-width:0.3985;stroke-linecap:butt;stroke-linejoin:miter;stroke-miterlimit:10;stroke-dasharray:none;stroke-opacity:1"
             d="M 0,0 85.92195,49.60692" /><g
             id="g32" /><path
             id="path34"
             style="fill:#000000;fill-opacity:1;fill-rule:nonzero;stroke:none"
             d="M 0.99628,0 C 0.99628,0.55023 0.55023,0.99628 0,0.99628 -0.55023,0.99628 -0.99628,0.55023 -0.99628,0 c 0,-0.55023 0.44605,-0.99628 0.99628,-0.99628 0.55023,0 0.99628,0.44605 0.99628,0.99628 z" /><g
             id="g36" /><path
             id="path38"
             style="fill:#000000;fill-opacity:1;fill-rule:nonzero;stroke:none"
             d="M 0.99628,0 C 0.99628,0.55023 0.55023,0.99628 0,0.99628 -0.55023,0.99628 -0.99628,0.55023 -0.99628,0 c 0,-0.55023 0.44605,-0.99628 0.99628,-0.99628 0.55023,0 0.99628,0.44605 0.99628,0.99628 z" /><g
             id="g40" /><path
             id="path42"
             style="fill:#000000;fill-opacity:1;fill-rule:nonzero;stroke:none"
             d="M 0.99628,0 C 0.99628,0.55023 0.55023,0.99628 0,0.99628 -0.55023,0.99628 -0.99628,0.55023 -0.99628,0 c 0,-0.55023 0.44605,-0.99628 0.99628,-0.99628 0.55023,0 0.99628,0.44605 0.99628,0.99628 z" /><g
             id="g44" /><path
             id="path46"
             style="fill:#000000;fill-opacity:1;fill-rule:nonzero;stroke:none"
             d="M 0.99628,0 C 0.99628,0.55023 0.55023,0.99628 0,0.99628 -0.55023,0.99628 -0.99628,0.55023 -0.99628,0 c 0,-0.55023 0.44605,-0.99628 0.99628,-0.99628 0.55023,0 0.99628,0.44605 0.99628,0.99628 z" /><g
             id="g48" /><path
             id="path50"
             style="fill:#000000;fill-opacity:1;fill-rule:nonzero;stroke:none"
             d="M 0.99628,0 C 0.99628,0.55023 0.55023,0.99628 0,0.99628 -0.55023,0.99628 -0.99628,0.55023 -0.99628,0 c 0,-0.55023 0.44605,-0.99628 0.99628,-0.99628 0.55023,0 0.99628,0.44605 0.99628,0.99628 z" /><g
             id="g52" /><path
             id="path54"
             style="fill:#000000;fill-opacity:1;fill-rule:nonzero;stroke:none"
             d="M 0.99628,0 C 0.99628,0.55023 0.55023,0.99628 0,0.99628 -0.55023,0.99628 -0.99628,0.55023 -0.99628,0 c 0,-0.55023 0.44605,-0.99628 0.99628,-0.99628 0.55023,0 0.99628,0.44605 0.99628,0.99628 z" /><g
             id="g56"><g
               transform="translate(-3.563,5.614)"
               id="g58"><g
                 id="g60"><g
                   transform="translate(-142.641,-142.252)"
                   id="g62"><text
                     id="text66"
                     style="font-variant:normal;font-weight:normal;font-size:8.96640015px;font-family:CMR9;-inkscape-font-specification:CMR9;writing-mode:lr-tb;fill:#000000;fill-opacity:1;fill-rule:nonzero;stroke:none"
                     transform="matrix(1,0,0,-1,147.995,142.252)"><tspan
                       id="tspan64"
                       y="0"
                       x="0">0</tspan></text>
<g
                     transform="translate(142.641,142.252)"
                     id="g68" /></g></g><g
                 transform="translate(3.563,-5.614)"
                 id="g70" /></g></g><g
             id="g72"><path
               id="path74"
               style="fill:none;stroke:#000000;stroke-width:0.3985;stroke-linecap:butt;stroke-linejoin:miter;stroke-miterlimit:10;stroke-dasharray:none;stroke-opacity:0.3"
               d="M 0,0 V 0 0 0 0 0 Z" /></g><g
             id="g76" /><path
             id="path78"
             style="fill:#000000;fill-opacity:1;fill-rule:nonzero;stroke:none"
             d="m 0.99628,19.84276 c 0,0.55023 -0.44605,0.99628 -0.99628,0.99628 -0.55023,0 -0.99628,-0.44605 -0.99628,-0.99628 0,-0.55023 0.44605,-0.99628 0.99628,-0.99628 0.55023,0 0.99628,0.44605 0.99628,0.99628 z" /><g
             id="g80" /><path
             id="path82"
             style="fill:#000000;fill-opacity:1;fill-rule:nonzero;stroke:none"
             d="m -16.1881,9.92137 c 0,0.55023 -0.44604,0.99628 -0.99627,0.99628 -0.55023,0 -0.99628,-0.44605 -0.99628,-0.99628 0,-0.55025 0.44605,-0.99627 0.99628,-0.99627 0.55023,0 0.99627,0.44602 0.99627,0.99627 z" /><g
             id="g84" /><path
             id="path86"
             style="fill:#000000;fill-opacity:1;fill-rule:nonzero;stroke:none"
             d="m -16.1881,-9.92137 c 0,0.55025 -0.44604,0.99627 -0.99627,0.99627 -0.55023,0 -0.99628,-0.44602 -0.99628,-0.99627 0,-0.55023 0.44605,-0.99628 0.99628,-0.99628 0.55023,0 0.99627,0.44605 0.99627,0.99628 z" /><g
             id="g88" /><path
             id="path90"
             style="fill:#000000;fill-opacity:1;fill-rule:nonzero;stroke:none"
             d="m 0.99628,-19.84276 c 0,0.55023 -0.44605,0.99628 -0.99628,0.99628 -0.55023,0 -0.99628,-0.44605 -0.99628,-0.99628 0,-0.55023 0.44605,-0.99628 0.99628,-0.99628 0.55023,0 0.99628,0.44605 0.99628,0.99628 z" /><g
             id="g92" /><path
             id="path94"
             style="fill:#000000;fill-opacity:1;fill-rule:nonzero;stroke:none"
             d="m 18.18065,-9.92137 c 0,0.55025 -0.44605,0.99627 -0.99628,0.99627 -0.55023,0 -0.99627,-0.44602 -0.99627,-0.99627 0,-0.55023 0.44604,-0.99628 0.99627,-0.99628 0.55023,0 0.99628,0.44605 0.99628,0.99628 z" /><g
             id="g96" /><path
             id="path98"
             style="fill:#000000;fill-opacity:1;fill-rule:nonzero;stroke:none"
             d="m 18.18065,9.92137 c 0,0.55023 -0.44605,0.99628 -0.99628,0.99628 -0.55023,0 -0.99627,-0.44605 -0.99627,-0.99628 0,-0.55025 0.44604,-0.99627 0.99627,-0.99627 0.55023,0 0.99628,0.44602 0.99628,0.99627 z" /><g
             id="g100"><g
               transform="translate(-3.563,25.457)"
               id="g102"><g
                 id="g104"><g
                   transform="translate(-142.641,-162.095)"
                   id="g106"><text
                     id="text110"
                     style="font-variant:normal;font-weight:normal;font-size:8.96640015px;font-family:CMR9;-inkscape-font-specification:CMR9;writing-mode:lr-tb;fill:#000000;fill-opacity:1;fill-rule:nonzero;stroke:none"
                     transform="matrix(1,0,0,-1,147.995,162.095)"><tspan
                       id="tspan108"
                       y="0"
                       x="0">2</tspan></text>
<g
                     transform="translate(142.641,162.095)"
                     id="g112" /></g></g><g
                 transform="translate(3.563,-25.457)"
                 id="g114" /></g></g><g
             id="g116"><path
               id="path118"
               style="fill:none;stroke:#000000;stroke-width:0.3985;stroke-linecap:butt;stroke-linejoin:miter;stroke-miterlimit:10;stroke-dasharray:none;stroke-opacity:0.3"
               d="M 17.18437,9.92137 0,19.84276 -17.18437,9.92137 V -9.92137 L 0,-19.84276 17.18437,-9.92137 Z" /></g><g
             id="g120" /><path
             id="path122"
             style="fill:#000000;fill-opacity:1;fill-rule:nonzero;stroke:none"
             d="m 0.99628,39.68553 c 0,0.55023 -0.44605,0.99628 -0.99628,0.99628 -0.55023,0 -0.99628,-0.44605 -0.99628,-0.99628 0,-0.55023 0.44605,-0.99628 0.99628,-0.99628 0.55023,0 0.99628,0.44605 0.99628,0.99628 z" /><g
             id="g124" /><path
             id="path126"
             style="fill:#000000;fill-opacity:1;fill-rule:nonzero;stroke:none"
             d="m -33.37248,19.84276 c 0,0.55023 -0.44605,0.99628 -0.99628,0.99628 -0.55023,0 -0.99628,-0.44605 -0.99628,-0.99628 0,-0.55023 0.44605,-0.99628 0.99628,-0.99628 0.55023,0 0.99628,0.44605 0.99628,0.99628 z" /><g
             id="g128" /><path
             id="path130"
             style="fill:#000000;fill-opacity:1;fill-rule:nonzero;stroke:none"
             d="m -33.37248,-19.84276 c 0,0.55023 -0.44605,0.99628 -0.99628,0.99628 -0.55023,0 -0.99628,-0.44605 -0.99628,-0.99628 0,-0.55023 0.44605,-0.99628 0.99628,-0.99628 0.55023,0 0.99628,0.44605 0.99628,0.99628 z" /><g
             id="g132" /><path
             id="path134"
             style="fill:#000000;fill-opacity:1;fill-rule:nonzero;stroke:none"
             d="m 0.99628,-39.68553 c 0,0.55023 -0.44605,0.99628 -0.99628,0.99628 -0.55023,0 -0.99628,-0.44605 -0.99628,-0.99628 0,-0.55023 0.44605,-0.99628 0.99628,-0.99628 0.55023,0 0.99628,0.44605 0.99628,0.99628 z" /><g
             id="g136" /><path
             id="path138"
             style="fill:#000000;fill-opacity:1;fill-rule:nonzero;stroke:none"
             d="m 35.36504,-19.84276 c 0,0.55023 -0.44605,0.99628 -0.99628,0.99628 -0.55023,0 -0.99628,-0.44605 -0.99628,-0.99628 0,-0.55023 0.44605,-0.99628 0.99628,-0.99628 0.55023,0 0.99628,0.44605 0.99628,0.99628 z" /><g
             id="g140" /><path
             id="path142"
             style="fill:#000000;fill-opacity:1;fill-rule:nonzero;stroke:none"
             d="m 35.36504,19.84276 c 0,0.55023 -0.44605,0.99628 -0.99628,0.99628 -0.55023,0 -0.99628,-0.44605 -0.99628,-0.99628 0,-0.55023 0.44605,-0.99628 0.99628,-0.99628 0.55023,0 0.99628,0.44605 0.99628,0.99628 z" /><g
             id="g144"><g
               transform="translate(-3.563,45.299)"
               id="g146"><g
                 id="g148"><g
                   transform="translate(-142.641,-181.937)"
                   id="g150"><text
                     id="text154"
                     style="font-variant:normal;font-weight:normal;font-size:8.96640015px;font-family:CMR9;-inkscape-font-specification:CMR9;writing-mode:lr-tb;fill:#000000;fill-opacity:1;fill-rule:nonzero;stroke:none"
                     transform="matrix(1,0,0,-1,147.995,181.937)"><tspan
                       id="tspan152"
                       y="0"
                       x="0">4</tspan></text>
<g
                     transform="translate(142.641,181.937)"
                     id="g156" /></g></g><g
                 transform="translate(3.563,-45.299)"
                 id="g158" /></g></g><g
             id="g160"><path
               id="path162"
               style="fill:none;stroke:#000000;stroke-width:0.3985;stroke-linecap:butt;stroke-linejoin:miter;stroke-miterlimit:10;stroke-dasharray:none;stroke-opacity:0.3"
               d="M 34.36876,19.84276 0,39.68553 -34.36876,19.84276 V -19.84276 L 0,-39.68553 34.36876,-19.84276 Z" /></g><g
             id="g164" /><path
             id="path166"
             style="fill:#000000;fill-opacity:1;fill-rule:nonzero;stroke:none"
             d="m 0.99628,59.5283 c 0,0.55025 -0.44605,0.99628 -0.99628,0.99628 -0.55023,0 -0.99628,-0.44603 -0.99628,-0.99628 0,-0.55023 0.44605,-0.99627 0.99628,-0.99627 0.55023,0 0.99628,0.44604 0.99628,0.99627 z" /><g
             id="g168" /><path
             id="path170"
             style="fill:#000000;fill-opacity:1;fill-rule:nonzero;stroke:none"
             d="m -50.5569,29.76414 c 0,0.55024 -0.44603,0.99628 -0.99628,0.99628 -0.55023,0 -0.99627,-0.44604 -0.99627,-0.99628 0,-0.55023 0.44604,-0.99627 0.99627,-0.99627 0.55025,0 0.99628,0.44604 0.99628,0.99627 z" /><g
             id="g172" /><path
             id="path174"
             style="fill:#000000;fill-opacity:1;fill-rule:nonzero;stroke:none"
             d="m -50.5569,-29.76414 c 0,0.55023 -0.44603,0.99627 -0.99628,0.99627 -0.55023,0 -0.99627,-0.44604 -0.99627,-0.99627 0,-0.55024 0.44604,-0.99628 0.99627,-0.99628 0.55025,0 0.99628,0.44604 0.99628,0.99628 z" /><g
             id="g176" /><path
             id="path178"
             style="fill:#000000;fill-opacity:1;fill-rule:nonzero;stroke:none"
             d="m 0.99628,-59.5283 c 0,0.55023 -0.44605,0.99627 -0.99628,0.99627 -0.55023,0 -0.99628,-0.44604 -0.99628,-0.99627 0,-0.55025 0.44605,-0.99628 0.99628,-0.99628 0.55023,0 0.99628,0.44603 0.99628,0.99628 z" /><g
             id="g180" /><path
             id="path182"
             style="fill:#000000;fill-opacity:1;fill-rule:nonzero;stroke:none"
             d="m 52.54945,-29.76414 c 0,0.55023 -0.44604,0.99627 -0.99627,0.99627 -0.55025,0 -0.99628,-0.44604 -0.99628,-0.99627 0,-0.55024 0.44603,-0.99628 0.99628,-0.99628 0.55023,0 0.99627,0.44604 0.99627,0.99628 z" /><g
             id="g184" /><path
             id="path186"
             style="fill:#000000;fill-opacity:1;fill-rule:nonzero;stroke:none"
             d="m 52.54945,29.76414 c 0,0.55024 -0.44604,0.99628 -0.99627,0.99628 -0.55025,0 -0.99628,-0.44604 -0.99628,-0.99628 0,-0.55023 0.44603,-0.99627 0.99628,-0.99627 0.55023,0 0.99627,0.44604 0.99627,0.99627 z" /><g
             id="g188"><g
               transform="translate(-3.563,65.142)"
               id="g190"><g
                 id="g192"><g
                   transform="translate(-142.641,-201.78)"
                   id="g194"><text
                     id="text198"
                     style="font-variant:normal;font-weight:normal;font-size:8.96640015px;font-family:CMR9;-inkscape-font-specification:CMR9;writing-mode:lr-tb;fill:#000000;fill-opacity:1;fill-rule:nonzero;stroke:none"
                     transform="matrix(1,0,0,-1,147.995,201.78)"><tspan
                       id="tspan196"
                       y="0"
                       x="0">6</tspan></text>
<g
                     transform="translate(142.641,201.78)"
                     id="g200" /></g></g><g
                 transform="translate(3.563,-65.142)"
                 id="g202" /></g></g><g
             id="g204"><path
               id="path206"
               style="fill:none;stroke:#000000;stroke-width:0.3985;stroke-linecap:butt;stroke-linejoin:miter;stroke-miterlimit:10;stroke-dasharray:none;stroke-opacity:0.3"
               d="M 51.55318,29.76414 0,59.5283 -51.55318,29.76414 V -29.76414 L 0,-59.5283 51.55318,-29.76414 Z" /></g><g
             id="g208" /><path
             id="path210"
             style="fill:#000000;fill-opacity:1;fill-rule:nonzero;stroke:none"
             d="m 0.99628,79.3711 c 0,0.55023 -0.44605,0.99627 -0.99628,0.99627 -0.55023,0 -0.99628,-0.44604 -0.99628,-0.99627 0,-0.55025 0.44605,-0.99628 0.99628,-0.99628 0.55023,0 0.99628,0.44603 0.99628,0.99628 z" /><g
             id="g212" /><path
             id="path214"
             style="fill:#000000;fill-opacity:1;fill-rule:nonzero;stroke:none"
             d="m -67.74129,39.68553 c 0,0.55023 -0.44604,0.99628 -0.99627,0.99628 -0.55024,0 -0.99628,-0.44605 -0.99628,-0.99628 0,-0.55023 0.44604,-0.99628 0.99628,-0.99628 0.55023,0 0.99627,0.44605 0.99627,0.99628 z" /><g
             id="g216" /><path
             id="path218"
             style="fill:#000000;fill-opacity:1;fill-rule:nonzero;stroke:none"
             d="m -67.74129,-39.68553 c 0,0.55023 -0.44604,0.99628 -0.99627,0.99628 -0.55024,0 -0.99628,-0.44605 -0.99628,-0.99628 0,-0.55023 0.44604,-0.99628 0.99628,-0.99628 0.55023,0 0.99627,0.44605 0.99627,0.99628 z" /><g
             id="g220" /><path
             id="path222"
             style="fill:#000000;fill-opacity:1;fill-rule:nonzero;stroke:none"
             d="m 0.99628,-79.3711 c 0,0.55025 -0.44605,0.99628 -0.99628,0.99628 -0.55023,0 -0.99628,-0.44603 -0.99628,-0.99628 0,-0.55023 0.44605,-0.99627 0.99628,-0.99627 0.55023,0 0.99628,0.44604 0.99628,0.99627 z" /><g
             id="g224" /><path
             id="path226"
             style="fill:#000000;fill-opacity:1;fill-rule:nonzero;stroke:none"
             d="m 69.73384,-39.68553 c 0,0.55023 -0.44604,0.99628 -0.99628,0.99628 -0.55023,0 -0.99627,-0.44605 -0.99627,-0.99628 0,-0.55023 0.44604,-0.99628 0.99627,-0.99628 0.55024,0 0.99628,0.44605 0.99628,0.99628 z" /><g
             id="g228" /><path
             id="path230"
             style="fill:#000000;fill-opacity:1;fill-rule:nonzero;stroke:none"
             d="m 69.73384,39.68553 c 0,0.55023 -0.44604,0.99628 -0.99628,0.99628 -0.55023,0 -0.99627,-0.44605 -0.99627,-0.99628 0,-0.55023 0.44604,-0.99628 0.99627,-0.99628 0.55024,0 0.99628,0.44605 0.99628,0.99628 z" /><g
             id="g232"><g
               transform="translate(-3.563,84.984)"
               id="g234"><g
                 id="g236"><g
                   transform="translate(-142.641,-221.622)"
                   id="g238"><text
                     id="text242"
                     style="font-variant:normal;font-weight:normal;font-size:8.96640015px;font-family:CMR9;-inkscape-font-specification:CMR9;writing-mode:lr-tb;fill:#000000;fill-opacity:1;fill-rule:nonzero;stroke:none"
                     transform="matrix(1,0,0,-1,147.995,221.622)"><tspan
                       id="tspan240"
                       y="0"
                       x="0">8</tspan></text>
<g
                     transform="translate(142.641,221.622)"
                     id="g244" /></g></g><g
                 transform="translate(3.563,-84.984)"
                 id="g246" /></g></g><g
             id="g248"><path
               id="path250"
               style="fill:none;stroke:#000000;stroke-width:0.3985;stroke-linecap:butt;stroke-linejoin:miter;stroke-miterlimit:10;stroke-dasharray:none;stroke-opacity:0.3"
               d="M 68.73756,39.68553 0,79.3711 -68.73756,39.68553 V -39.68553 L 0,-79.3711 68.73756,-39.68553 Z" /></g><g
             id="g252" /><path
             id="path254"
             style="fill:#000000;fill-opacity:1;fill-rule:nonzero;stroke:none"
             d="m 0.99628,99.21387 c 0,0.55023 -0.44605,0.99627 -0.99628,0.99627 -0.55023,0 -0.99628,-0.44604 -0.99628,-0.99627 0,-0.55023 0.44605,-0.99628 0.99628,-0.99628 0.55023,0 0.99628,0.44605 0.99628,0.99628 z" /><g
             id="g256" /><path
             id="path258"
             style="fill:#000000;fill-opacity:1;fill-rule:nonzero;stroke:none"
             d="m -84.92567,49.60692 c 0,0.55023 -0.44605,0.99628 -0.99628,0.99628 -0.55023,0 -0.99628,-0.44605 -0.99628,-0.99628 0,-0.55023 0.44605,-0.99628 0.99628,-0.99628 0.55023,0 0.99628,0.44605 0.99628,0.99628 z" /><g
             id="g260" /><path
             id="path262"
             style="fill:#000000;fill-opacity:1;fill-rule:nonzero;stroke:none"
             d="m -84.92567,-49.60692 c 0,0.55023 -0.44605,0.99628 -0.99628,0.99628 -0.55023,0 -0.99628,-0.44605 -0.99628,-0.99628 0,-0.55023 0.44605,-0.99628 0.99628,-0.99628 0.55023,0 0.99628,0.44605 0.99628,0.99628 z" /><g
             id="g264" /><path
             id="path266"
             style="fill:#000000;fill-opacity:1;fill-rule:nonzero;stroke:none"
             d="m 0.99628,-99.21387 c 0,0.55023 -0.44605,0.99628 -0.99628,0.99628 -0.55023,0 -0.99628,-0.44605 -0.99628,-0.99628 0,-0.55023 0.44605,-0.99627 0.99628,-0.99627 0.55023,0 0.99628,0.44604 0.99628,0.99627 z" /><g
             id="g268" /><path
             id="path270"
             style="fill:#000000;fill-opacity:1;fill-rule:nonzero;stroke:none"
             d="m 86.91823,-49.60692 c 0,0.55023 -0.44605,0.99628 -0.99628,0.99628 -0.55023,0 -0.99628,-0.44605 -0.99628,-0.99628 0,-0.55023 0.44605,-0.99628 0.99628,-0.99628 0.55023,0 0.99628,0.44605 0.99628,0.99628 z" /><g
             id="g272" /><path
             id="path274"
             style="fill:#000000;fill-opacity:1;fill-rule:nonzero;stroke:none"
             d="m 86.91823,49.60692 c 0,0.55023 -0.44605,0.99628 -0.99628,0.99628 -0.55023,0 -0.99628,-0.44605 -0.99628,-0.99628 0,-0.55023 0.44605,-0.99628 0.99628,-0.99628 0.55023,0 0.99628,0.44605 0.99628,0.99628 z" /><g
             id="g276"><g
               transform="translate(-3.563,104.827)"
               id="g278"><g
                 id="g280"><g
                   transform="translate(-142.641,-241.465)"
                   id="g282"><text
                     id="text286"
                     style="font-variant:normal;font-weight:normal;font-size:8.96640015px;font-family:CMR9;-inkscape-font-specification:CMR9;writing-mode:lr-tb;fill:#000000;fill-opacity:1;fill-rule:nonzero;stroke:none"
                     transform="matrix(1,0,0,-1,143.388,241.465)"><tspan
                       id="tspan284"
                       y="0"
                       x="0 4.6078329">10</tspan></text>
<g
                     transform="translate(142.641,241.465)"
                     id="g288" /></g></g><g
                 transform="translate(3.563,-104.827)"
                 id="g290" /></g></g><g
             id="g292"><path
               id="path294"
               style="fill:none;stroke:#000000;stroke-width:0.3985;stroke-linecap:butt;stroke-linejoin:miter;stroke-miterlimit:10;stroke-dasharray:none;stroke-opacity:0.3"
               d="M 85.92195,49.60692 0,99.21387 -85.92195,49.60692 V -49.60692 L 0,-99.21387 85.92195,-49.60692 Z" /></g><g
             id="g296"><g
               transform="translate(-34.869,127.09)"
               id="g298"><g
                 id="g300"><g
                   transform="translate(-111.335,-263.728)"
                   id="g302"><text
                     id="text308"
                     style="font-variant:normal;font-weight:normal;font-size:8.96640015px;font-family:CMR9;-inkscape-font-specification:CMR9;writing-mode:lr-tb;fill:#000000;fill-opacity:1;fill-rule:nonzero;stroke:none"
                     transform="matrix(1,0,0,-1,132.958,263.728)"><tspan
                       id="tspan304"
                       y="0"
                       x="0 6.5266423 11.394501 16.514315 19.065256 21.625164">Bodily</tspan><tspan
                       id="tspan306"
                       y="10.959"
                       x="-5.0819998 -2.2665503 2.8532641 7.9730783 12.06893 15.6528 18.212708 22.820539 27.940355">functions</tspan></text>
<g
                     transform="translate(111.335,263.728)"
                     id="g310" /></g></g><g
                 transform="translate(34.869,-127.09)"
                 id="g312" /></g></g><g
             id="g314"><g
               transform="translate(-142.884,71.079)"
               id="g316"><g
                 id="g318"><g
                   transform="translate(-3.32,-207.717)"
                   id="g320"><text
                     id="text328"
                     style="font-variant:normal;font-weight:normal;font-size:8.96640015px;font-family:CMR9;-inkscape-font-specification:CMR9;writing-mode:lr-tb;fill:#000000;fill-opacity:1;fill-rule:nonzero;stroke:none"
                     transform="matrix(1,0,0,-1,24.11,207.717)"><tspan
                       id="tspan322"
                       y="0"
                       x="0 8.4463491 12.545787 17.405575 20.989447 25.597279">Mental</tspan><tspan
                       id="tspan324"
                       y="10.959"
                       x="-9.368 -6.5525503 -1.432736 3.6870785 7.7829299 11.3668 13.926707 18.53454 23.654354 30.355843">functions&amp;</tspan><tspan
                       id="tspan326"
                       y="21.917999"
                       x="-8.8699999 -3.49016 0.6003117 4.2048044 8.3006563 12.400094 17.519909 21.103779 23.663685 28.271519 33.391335">perceptions</tspan></text>
<g
                     transform="translate(3.32,207.717)"
                     id="g330" /></g></g><g
                 transform="translate(142.884,-71.079)"
                 id="g332" /></g></g><g
             id="g334"><g
               transform="translate(-142.884,-59.996)"
               id="g336"><g
                 id="g338"><g
                   transform="translate(-3.32,-76.642)"
                   id="g340"><text
                     id="text346"
                     style="font-variant:normal;font-weight:normal;font-size:8.96640015px;font-family:CMR9;-inkscape-font-specification:CMR9;writing-mode:lr-tb;fill:#000000;fill-opacity:1;fill-rule:nonzero;stroke:none"
                     transform="matrix(1,0,0,-1,20.773,76.642)"><tspan
                       id="tspan342"
                       y="0"
                       x="0 5.1198144 10.239629 12.799536 16.404028 18.963936 22.547806 27.66762 32.275452">Spiritual</tspan><tspan
                       id="tspan344"
                       y="10.959"
                       x="-2.8329999 2.2868145 4.8467216 12.526443 16.625881 21.745695 25.380674 27.940582 32.548416">dimension</tspan></text>
<g
                     transform="translate(3.32,76.642)"
                     id="g348" /></g></g><g
                 transform="translate(142.884,59.996)"
                 id="g350" /></g></g><g
             id="g352"><g
               transform="translate(-34.869,-122.358)"
               id="g354"><g
                 id="g356"><g
                   transform="translate(-111.335,-14.28)"
                   id="g358"><text
                     id="text364"
                     style="font-variant:normal;font-weight:normal;font-size:8.96640015px;font-family:CMR9;-inkscape-font-specification:CMR9;writing-mode:lr-tb;fill:#000000;fill-opacity:1;fill-rule:nonzero;stroke:none"
                     transform="matrix(1,0,0,-1,131.101,14.28)"><tspan
                       id="tspan360"
                       y="0"
                       x="0 7.1677403 12.287555 16.895388 19.455296 22.015202 25.339046">Quality</tspan><tspan
                       id="tspan362"
                       y="10.959"
                       x="3.839 8.4468327 14.337758 16.897665 19.457573 22.273022">oflife</tspan></text>
<g
                     transform="translate(111.335,14.28)"
                     id="g366" /></g></g><g
                 transform="translate(34.869,122.358)"
                 id="g368" /></g></g><g
             id="g370"><g
               transform="translate(73.146,-59.125)"
               id="g372"><g
                 id="g374"><g
                   transform="translate(-219.35,-77.513)"
                   id="g376"><text
                     id="text382"
                     style="font-variant:normal;font-weight:normal;font-size:8.96640015px;font-family:CMR9;-inkscape-font-specification:CMR9;writing-mode:lr-tb;fill:#000000;fill-opacity:1;fill-rule:nonzero;stroke:none"
                     transform="matrix(1,0,0,-1,219.916,77.513)"><tspan
                       id="tspan378"
                       y="0"
                       x="0 5.1198144 9.9876728 14.074558 16.634466 21.242298 26.87768 37.120895 42.240711 47.099602 51.195454 53.75536 57.854801 61.438671 66.046501">Social&amp;Societal</tspan><tspan
                       id="tspan380"
                       y="10.959"
                       x="8.4379997 13.557815 18.165648 21.77014 25.35401 27.913918 32.009769 34.569675 39.689491 44.297325 47.881195 50.441101 55.048935">participation</tspan></text>
<g
                     transform="translate(219.35,77.513)"
                     id="g384" /></g></g><g
                 transform="translate(-73.146,59.125)"
                 id="g386" /></g></g><g
             id="g388"><g
               transform="translate(73.146,65.6)"
               id="g390"><g
                 id="g392"><g
                   transform="translate(-219.35,-202.238)"
                   id="g394"><text
                     id="text400"
                     style="font-variant:normal;font-weight:normal;font-size:8.96640015px;font-family:CMR9;-inkscape-font-specification:CMR9;writing-mode:lr-tb;fill:#000000;fill-opacity:1;fill-rule:nonzero;stroke:none"
                     transform="matrix(1,0,0,-1,243.404,202.238)"><tspan
                       id="tspan396"
                       y="0"
                       x="0 7.0386238 11.646457 14.206365 16.766272">Daily</tspan><tspan
                       id="tspan398"
                       y="10.959"
                       x="-11.839 -9.02355 -3.9037361 1.2160784 5.3119297 8.8957996 11.455708 16.06354 21.183355 23.743261 28.863075">functioning</tspan></text>
<g
                     transform="translate(219.35,202.238)"
                     id="g402" /></g></g><g
                 transform="translate(-73.146,-65.6)"
                 id="g404" /></g></g></g></g></g></g></svg>